<svg width="59" height="49" viewBox="0 0 59 49" fill="none" xmlns="http://www.w3.org/2000/svg">
<path d="M59 23.3211C59 22.2165 58.1046 21.3211 57 21.3211H12.2652L27.7934 5.91478C28.5819 5.13247 28.5819 3.85753 27.7934 3.07523L26.1025 1.39757C25.3228 0.623938 24.065 0.623938 23.2852 1.39757L1.43101 23.0802C0.642515 23.8625 0.642516 25.1375 1.43101 25.9198L23.2852 47.6024C24.065 48.3761 25.3228 48.3761 26.1025 47.6024L27.7934 45.9248C28.5819 45.1425 28.5819 43.8675 27.7934 43.0852L12.2652 27.6789H57C58.1046 27.6789 59 26.7835 59 25.6789V23.3211Z" fill="#F1D870"/>
</svg>
