<svg xmlns="http://www.w3.org/2000/svg" xmlns:xlink="http://www.w3.org/1999/xlink" viewBox="0 0 730.91 730.91"><defs><style>.cls-1,.cls-29,.cls-8,.cls-9{fill:none;}.cls-2{isolation:isolate;}.cls-3{opacity:0.12;}.cls-39,.cls-4{fill:#fff;}.cls-16,.cls-5{fill:#56548d;}.cls-5{stroke:#454545;}.cls-11,.cls-12,.cls-13,.cls-14,.cls-16,.cls-17,.cls-18,.cls-19,.cls-20,.cls-21,.cls-22,.cls-23,.cls-25,.cls-26,.cls-27,.cls-28,.cls-29,.cls-30,.cls-31,.cls-32,.cls-33,.cls-34,.cls-36,.cls-39,.cls-40,.cls-41,.cls-5,.cls-8,.cls-9{stroke-miterlimit:10;}.cls-31,.cls-6{fill:#f1d870;}.cls-30,.cls-7{fill:#ff824f;}.cls-8,.cls-9{stroke:#4f885a;stroke-width:10px;}.cls-29,.cls-8,.cls-9{stroke-linecap:round;}.cls-9{stroke-dasharray:0 40.19;}.cls-10{clip-path:url(#clip-path);}.cls-11{fill:#797979;}.cls-11,.cls-12,.cls-13,.cls-14,.cls-16,.cls-17,.cls-18,.cls-19,.cls-20,.cls-21,.cls-22,.cls-23,.cls-25,.cls-26,.cls-27,.cls-28,.cls-29,.cls-30,.cls-31,.cls-32,.cls-33,.cls-34,.cls-39,.cls-40,.cls-41{stroke:#345370;}.cls-12{fill:#8e8e8e;}.cls-14,.cls-35{fill:#faf8f0;}.cls-14{stroke-width:4px;}.cls-15,.cls-40{fill:#345370;}.cls-17{fill:#454545;}.cls-18{fill:#4e97b7;}.cls-19,.cls-21{fill:#c6c5d8;}.cls-19{stroke-width:2px;}.cls-20{fill:#c7c7c7;}.cls-20,.cls-21,.cls-29,.cls-40{stroke-width:3px;}.cls-22{fill:#a0a0a0;}.cls-23{fill:#bababa;}.cls-24{opacity:0.47;}.cls-25,.cls-26,.cls-27{fill:#4f885a;}.cls-26{opacity:0.61;}.cls-27{opacity:0.55;}.cls-28{fill:#d76161;}.cls-32{fill:#5a5a5a;}.cls-33{fill:#636363;}.cls-34{fill:#838383;}.cls-36,.cls-44{fill:#fbf0c2;}.cls-36{stroke:#e6e6e6;}.cls-37{opacity:0.3;}.cls-38{fill:#e7c4f7;}.cls-41{fill:#f2f2f2;}.cls-42{mix-blend-mode:multiply;opacity:0.84;}.cls-43,.cls-44{font-size:85.77px;font-family:BlackOpsOne-Regular, Black Ops One;}.cls-43{fill:#ff9700;}</style><clipPath id="clip-path"><circle class="cls-1" cx="350.93" cy="336.89" r="291.94"/></clipPath></defs><g class="cls-2"><g id="Layer_1" data-name="Layer 1"><g class="cls-3"><path class="cls-4" d="M256.44,222.71a30.53,30.53,0,1,0-29.34-50.44h0a30.56,30.56,0,0,0-7,12.63v0c-.25.94-.48,1.88-.65,2.85h0a30.52,30.52,0,0,0,37,34.92Zm-11.17-58.83a29.86,29.86,0,0,1,28.15,12.19l-.46,0a5.62,5.62,0,0,0-1.13.17c-.65,1-.53,1.19-.26,2.35a6.85,6.85,0,0,0,2.78,3.44c.66.32,1.24.2,1.47-.8a3.32,3.32,0,0,0,0-1.22,29.34,29.34,0,0,1,1.66,3.89c.1.8.15,1.6.17,2.4a2.81,2.81,0,0,0-1.45-.57,4.65,4.65,0,0,1-1.06-.32,6.13,6.13,0,0,1-.72-.35c-.79-.49-1.26-1.49-2-1.56a10.82,10.82,0,0,0-1.79-1.33c-.58-.3-1.25-.16-1.45-1-.35-1.53-1.32-4.14-2.77-3.8a5.2,5.2,0,0,0-.89,2c0,.31.11.41,0,.67,0,.06.12.33.09.38s-.2,0-.25.06-.1.66-.43.5a4.48,4.48,0,0,1-.72-.77,12.83,12.83,0,0,1-1.17-3.91c-.18-1.77,0-1.24.7-2.18s1-3.47-.51-3.92a3.1,3.1,0,0,0-2.27.66c-.25.52-.59,1.58-1.05,1.86-1.11.76-1,.77-1.92,1-.28.06-.17,0-.42,0s-.17-.16-.21-.35c-1.13-.08-3.24-.26-4.2.48a1.37,1.37,0,0,0-.45,1.54,23.65,23.65,0,0,1,.42,3.54,3,3,0,0,0,1.72,2.18c.57.35,1.19.68,1.73,1.06,1.84,1.31,3.57.17,5.88.38a5.21,5.21,0,0,1-1.37,2.21c-.73.92-.42,3.58.68,4.69a5.18,5.18,0,0,0,1.8,1.33c.28.1,2.29.24,2.38.39-.15,1.58-.07,1.37-.83,2.21-.27.29-.57.47-.43,1,.45,2,1.84.38,3,.9.41.11,1.47.21,1.74.54.56.68-1.39,1.71-1.31,2.46a1.53,1.53,0,0,0,.87,1.42c.26.18.52.62.84.74a4.43,4.43,0,0,0,.86.21c1.45-.71,2-.89,1.63-2.27-.2-.83,0-2.95-.94-3.42-.35-.17-.26.07-.6-.26-.1-.1-.7-.22-.88-.33s-.79-.33-1-.59c-.31-1.35-1.09-3.52-.69-4.69a1.1,1.1,0,0,1,1.19-.68,4.49,4.49,0,0,1,1.2.53c1,1.1.87.82,1.12,1.89a3.73,3.73,0,0,0,2,2.9,4.86,4.86,0,0,1,1.58,1c.46.68.13.86.07,1.46,0,.32-.09.63-.11.92a24.31,24.31,0,0,1-35.21,10.29A2.68,2.68,0,0,0,239,206a10.05,10.05,0,0,0-1.2-.41,24.52,24.52,0,0,1-3-3,9.81,9.81,0,0,1,1.28-.61l.39-.11c.85.64,1.78,1.66,2.77,1.51a30.64,30.64,0,0,0,3.27-1c1.11-.26,1,1.72,1,2.34.71,3.05,1,4.35,4.2,3.6a28.18,28.18,0,0,1,3.2-.75c1.13-.11.6-1.45.39-2.38-.21-.36-1.22-2-.88-2.62s1-1.31,1-1.86c.08-1.24-1.84-2.21-3.14-2.5s-1.5-3.15-.13-3.47c.41-.56.73-1,1-1.3-.17.08-.3,0-.29-.35a1.76,1.76,0,0,1,2.16-1.71c2.29.23.53-1.57-.15-2.39-.56-.67-.57-1.28.15-1.66,1.18-.61,1.33-.08,2.29,0,1.41,1,2.62,1.58,3.35,1a2.38,2.38,0,0,0,.68-1.71,4.27,4.27,0,0,0-1.89-3.48,3,3,0,0,0-2.31-.66c-1,.23-5,4-5.65,2.93-.57-1.69-.41-1.32.29-2.22a4,4,0,0,0,.29-.47c.1-.25.48-.42.52-.66.15-.77-.23-1-1-1.39-.4-.18-.37,0-.42,0a2.77,2.77,0,0,0-.57-.13,2.5,2.5,0,0,1-.7-.11c.58-.25.47-.45.56-1.07.14-.88,2.27-2.17,2.54-3.56.47-2.42-2.15-5.42-4.18-5.22-1.2.12-2.82-.22-4.18.57-.75.44-2.94,2.07-3,2.72a13.05,13.05,0,0,0-4.81,4.22,1.44,1.44,0,0,1-2.24.24,24.29,24.29,0,0,1,3-5.62,32.81,32.81,0,0,1,3.12-2.26,5.6,5.6,0,0,0-1.39.11A24.33,24.33,0,0,1,245.27,163.88ZM220.66,189.7a28.35,28.35,0,0,1,1.11-6.15A30,30,0,0,0,271.19,212l.29-.25a29.3,29.3,0,0,1-50.82-22Z"/><path class="cls-4" d="M249.09,193.42c.52-.24,1.41-1.78,0,0Z"/><path class="cls-4" d="M241.81,168.83c2.79-.65,4.39-1.26,6.36.14,1.34.95,2.32,2.18,3.28.18a1.25,1.25,0,0,1,.54-.57c1.51-.88,4.86.32,3.87-2.48-.44-1.21-2.52-.12-4.32.57a3.81,3.81,0,0,1-2.19.41c-3.16-1.08-6.21,0-9.45.78S239.07,169.47,241.81,168.83Z"/><path class="cls-4" d="M155.09,335.31c0,.07,0,.15,0,.22a5.23,5.23,0,0,1-5.1,3.37c-1.55-.07-2.77-.95-2.56-2.77a3.47,3.47,0,0,1,.08-.52c1.37,2.05,3.74,1,3.71-.45a3.33,3.33,0,0,0-.43-1.62,2.46,2.46,0,0,0-.63-.69l-.93-.37a2.11,2.11,0,0,0-.56,0c-1,.17-3.62,1.89-3.45,4.55,0,.07,0,.13,0,.2.38,3.31,2.73,5,6.26,3.17A12.35,12.35,0,0,0,157,335l.08-.12a5,5,0,0,0-.06-2.29c-.51.66-.9,1.34-1.4,2l-.37-.1A4.85,4.85,0,0,1,155.09,335.31Z"/><path class="cls-4" d="M90.38,314.12a79,79,0,1,0,74.15-108.39h-1c-.84,0-1.69,0-2.55,0-.41,0-.83,0-1.25.07-.85,0-1.7.08-2.56.15l-1.28.14c-.84.08-1.69.16-2.53.28l-1.39.21c-.81.12-1.61.24-2.42.39-.52.09-1,.21-1.55.32-.76.15-1.51.3-2.26.48-.59.14-1.18.3-1.77.46s-1.35.33-2,.53-1.5.47-2.25.71l-1.53.48c-1.26.43-2.52.9-3.77,1.4s-2.32,1-3.45,1.49l-1.08.51c-.77.36-1.54.74-2.29,1.12l-1.21.64-2.09,1.16-1.17.68-2.15,1.34-1,.62q-1.5,1-2.94,2l-.6.46c-.76.56-1.51,1.14-2.24,1.73-.36.28-.7.58-1,.87-.57.47-1.14.95-1.69,1.44l-1.11,1-1.53,1.44-1.07,1c-.52.52-1,1.06-1.53,1.59-.3.33-.62.65-.92,1-.75.83-1.48,1.67-2.2,2.52l-.9,1.13c-.43.53-.86,1.06-1.27,1.61s-.67.9-1,1.35-.7,1-1,1.47-.66,1-1,1.44-.64,1-1,1.46L96,244l-.16.27h0A78.9,78.9,0,0,0,90.38,314.12Zm146.58-6h0l.12-.4ZM97.12,246.26a77.32,77.32,0,0,1,11.46-15,10.19,10.19,0,0,1,.57-2.06,2.93,2.93,0,0,0,.16,1.31c.45-.44.86-.92,1.32-1.35a76.56,76.56,0,0,1,48.25-20.9,74.92,74.92,0,0,1,14,.42c.29-.67.56-1.33.78-2a4.28,4.28,0,0,0,.23,2.08c1.08.14,2.15.32,3.21.51a64.49,64.49,0,0,1,33.33,13.28c0-.14,0-.29-.06-.44l.49.78,1.8,2.89c1.36,1.13,2.7,2.3,4,3.52a4.41,4.41,0,0,0-1.74-.22h-.35a6.27,6.27,0,0,1-2.49-.58c-.24-.1-.43-.21-.65-.32a19.25,19.25,0,0,1-4.91-3.58c-1-1.88-4.22.24-4.54-2.49a5.36,5.36,0,0,0-.65-2.23c-.83-.44-1.67-.87-2.51-1.27a4.47,4.47,0,0,0-.52,0c-1.81.09-2.11,1.07-3.1-.38-1.14-1.69-2.56-2.15-4.76-2.85,0,.51.16,3.11-.28,3.48-.67.56-2.09-.2-2.8-.3a5.57,5.57,0,0,0-1.85.29,4.74,4.74,0,0,0-2.49,1.54c.62.85,1,2.05.17,2.57a5.36,5.36,0,0,1,2.85-1.85,5.48,5.48,0,0,1,1.84-.29c.71.08,2.12.8,2.8.26.44-.36.26-2.86.31-3.35,2.19.65,3.59,1.08,4.73,2.7,1,1.39,1.27.44,3.08.34,2.4-.15,3.38.94,3.65,3.35.29,2.62,3.56.55,4.51,2.36a18.5,18.5,0,0,0,4.88,3.41c.21.1.4.2.63.29a6.53,6.53,0,0,0,2.9.54,22.23,22.23,0,0,1,1.49,4.19c1.09,4.71,3.49,7.4,5.56,10.44h0a22.32,22.32,0,0,1,2.14,3.79h0v0h0v0h0c1.28,3.09,4.76,8.23,8,9a4,4,0,0,1,.85.35,8.9,8.9,0,0,1,1.93,1.48,30.17,30.17,0,0,1,2.27,2.57,7,7,0,0,0-3.81-2.2,64.1,64.1,0,0,1-6.09,42.39l-.95.63c-5.19,3.56-7.26,9.82-10.65,15.14a63.13,63.13,0,0,1-9.07,7.47,6.85,6.85,0,0,0-.08-.93c-.62.79-1.22,1.5-1.82,2.17-1.25.79-2.54,1.55-3.85,2.25a3.87,3.87,0,0,1-.49,1.26,5.88,5.88,0,0,1-1.16,1.43c-2.07,1.87-2.13,3.07,2.47.17a18.53,18.53,0,0,0,4.86-4.78l.44-.56a7.8,7.8,0,0,1-1.65,6.55c-1.88,2.08-6.08,4.08-7.74,6.1l-.16.23a39.52,39.52,0,0,0-2.92,5c4.12-4.9,8.25-1.34,12.09-8.23,2-3.53,1.41-7.83,4.81-10.65s5.54-7,7.6-11.05c1.87-3.64,3.8-7.19,6.89-9.68.24-.19.47-.39.73-.57,2.28-1.61,5.08-3.37,7.82-5.37l.63-.46c1.27-1,2.5-2,3.67-3l.53-.47a77.78,77.78,0,0,1-2.28,10.75l-.21.11-.65.38c-7,4.07-14.42,10-16.17,14.42s-3.61,9.29-7.19,13.26a9.18,9.18,0,0,0-1.52,2.65c-.77,2-.67,3.82,2.43,1.25,4.13-3.43,7.94-7.78,12.22-11.89,1.36-1.3,2.76-2.58,4.23-3.8a76.94,76.94,0,0,1-89.87,35.88c-1.49-.46-3-1-4.42-1.52a25.38,25.38,0,0,1,2.89-1.31l.14-.06.65-.26a41.64,41.64,0,0,1,7.52-1.9A37.77,37.77,0,0,1,158,353.1c7.06,1,12.85-2.36,17.35-6.26q.8-.68,1.53-1.38c1.18-1.12,2.27-2.25,3.24-3.3l.13-.15c.2-.23.43-.48.67-.73a14.56,14.56,0,0,1,5.24-3.64,7.39,7.39,0,0,1,.88-.27c.65-.15,1.52-.34,2.45-.59,2.68-.7,5.9-1.94,6.19-4.42,0-.07.05-.12.05-.19a2.07,2.07,0,0,0-.54-1.79,4.1,4.1,0,0,1-2.39,2.84l.08.21a3.08,3.08,0,0,0,.41.68,4.81,4.81,0,0,1-1.94-.12l-.17,0-.35.13a27,27,0,0,1-2.6.75,2.78,2.78,0,0,1,.94-1.41h0l0,0h0v0h.13l.13-.11h0l0,0h.09a.47.47,0,0,1,.09-.06,3.45,3.45,0,0,1-.63-2.27c.13-2.68,2.74-5.86,7.33-5.56h.47a5.28,5.28,0,0,1,4,2.24c.18-1.63-.94-3.07-2.94-3.7.76-.7,2-1.58,2.55-2.11,2.7-2.68,3.16-6.93,5.55-10.48a2.37,2.37,0,0,1,.25-.82l0,0h0l0-.06h0l0-.06h0l0,0,.07-.11,0,0h0l0,0h0l0,0,.11-.15h0l.08-.11h0c.46-.59,1-1.14,1.48-1.71h0l.08-.11,0,0,.13-.19h0a1.18,1.18,0,0,0,.11-.19h0v0l0,0h0l0-.05h0l0-.05v0l0,0V307l0,0h0l0-.06,0-.07,0-.07,0-.08,0-.07,0-.07,0-.08,0-.08,0-.07,0-.08,0-.08,0-.08,0-.08,0-.08,0-.09,0-.08,0-.08,0-.09,0-.08,0-.08,0-.09,0-.08,0-.09,0-.09,0-.08,0-.09,0-.09,0-.08,0-.09,0-.09,0-.08,0-.09,0-.09,0-.08h0l0-.08h0l0-.09h0l0-.09h0l0-.08h0l0-.09h0l0-.09h0l0-.08h0l0-.09h0l0-.08h0l0-.09h0l0-.08h0l0-.09h0l0-.08h0l0-.08h0l0-.08h0l0-.09h0l0-.08h0l0-.08h0l0-.08h0l0-.08h0l0-.07h0l0-.08h0l0-.08h0l0-.07h0l0-.08h0l0-.07h0l0-.07h0l0-.08h0l0-.07h0l0-.07h0l0-.06a5.13,5.13,0,0,0,.45-.91l0-.08h0l0-.08h0l0-.08h0l0-.08h0l0-.09h0l0-.08h0l0-.09h0l0-.08h0l0-.09h0l0-.09h0l0-.08h0l0-.09h0l0-.09h0l0-.09h0l0-.09,0-.09,0-.1v-.09l0-.09,0-.09,0-.1v-.09l0-.1v-.1l0-.09v-.1l0-.1h0v-.09h0v-.1h0l0-.1h0V298h0v-.1h0l0-.1h0v-.1h0v-.11h0v-.1h0l0-.1h0v-.1h0v-.11h0v-.1h0l0-.11h0v-.1h0v-.11h0l.12-1a8.31,8.31,0,0,1,.67-2.42h0l.05-.1h0l0-.1h0l0-.1h0l0-.11h0l.05-.1h0l0-.1h0l0-.1.05-.1.06-.1.06-.1,0-.1.06-.1.06-.1.06-.09.07-.1.06-.1.06-.09.07-.1.07-.09.06-.1.07-.09.07-.09.07-.09.08-.09.07-.09.07-.09.08-.09.07-.08.08-.09.07-.08.08-.08.08-.09.08-.08.08-.08.08-.07.08-.08.09-.08.08-.07.08-.07.09-.07c2-1.66,2.4-5.15,2.66-8.28l0-.24V281h0c0-.23,0-.44,0-.65v0c0-.13,0-.26,0-.39h0a4.82,4.82,0,0,0-.1-.57h0a1,1,0,0,0,0-.17h0l-.12-.33h0a3.44,3.44,0,0,0-.67-1.09l-.05-.06-.06-.06,0,0-.07-.06,0,0-.21-.18h0l0,0-.11-.08h0l-.11-.08h0l-.21-.13,0,0-.1,0h0l-.07,0h0l-.08,0-.1,0-.25-.11h0l-.13,0h0l-.27-.09h0l-.07,0-.07,0h-.05l-.08,0h0l-.13,0h0l-.15,0h0l-.16,0h0l-.14,0-.61-.11h-.06l-.29,0h0l-.16,0h-.34l-.17,0h-1.08c-.65,0-1.32-.06-2-.09a17.49,17.49,0,0,1-7.2-1.73c-2.43-1.5-3.42-3.89-5.54-5.51s-7.11-2.26-10.22-1.53c-2.88-.27-8.62-5.67-11.72-3.56-1.71,1.16-2.07,1.9-5,2-.08-.35-4.09-1.69-4.9-2.08a1.82,1.82,0,0,0-1.4.08,8.72,8.72,0,0,0-3.27,2.53l-.48.71a25,25,0,0,1-1.57,2.15c-.53.3-.74.94-1.52,1.55a7.07,7.07,0,0,0-1.15-.58,1.17,1.17,0,0,1-.4-.25c-.48-.16-.3,0-.68,0s-.43-.17-.56-.21-.22.09-.32.07l-.52-.06c-.47-.06-.93-.13-1.41-.17-2.16.5-5.11-1.36-5.93-3.55-.4-1.07-2-1.69-3.22-2.14-.48-.21-1.43.16-2,.29a2.85,2.85,0,0,1-1.89-.07c-1.16-.39-1.93-1.11-1.21-2.27.15-.25-.19.64.59-1.84,1-.59,1.35-1.59.82-3.08-.25-.68-.49-.44-.84-.66-1-.63-3.57,1.88-3.78,2.75s-1.12,1.4-2,2.18c-.06.73-3.75.7-3.94.58s-.89-.19-1.28-.38a4.74,4.74,0,0,1-1.55-1.51,26.29,26.29,0,0,1-.63-2.75,2.3,2.3,0,0,1,1.2-2.15c.33-.19,0-2.11-.08-2.53-.22-2.21,2.17-3.83,4.53-4.63,1.43-.33,2.78,1.59,4.86.4,1-.58,1.51-2.39,2.93-2.72s1.92-.65,3.06,0c1.66.9,1.17,2.22,2.83,4.11,1.5-.35,2.74-1.79,1.42-3.39a7.15,7.15,0,0,1-1.74-4.53c-.17-1.45.81-2.36,1.89-3.6l.26-.31c.76-.46,1.75-1.65,2.57-2.13a3.67,3.67,0,0,0,1.45-2.55,2.84,2.84,0,0,1,.68-2.19c.2-.33.35-.63.5-.92s.41-.84.71-1.35a8.63,8.63,0,0,1,1.32.56c2.81,1.48,3.27,2.79,7.2,1.6s2.77-2,1.4-2.88a9,9,0,0,1-1.9.75c-3.73,1.14-4.36-.05-6.84-1.5l-.39-.23c-7.33-4-5.14,7.44-13.4,5.23l-.14,0c-.85-.71-.43-2.21-.18-3.1a2.74,2.74,0,0,0,.08-.5,3.82,3.82,0,0,0-.86-2.86c-1.55-1.87-5.89.75-6.65,2-1.46,2.36-3.4,2.76-6.23,2a2.4,2.4,0,0,0-.51-.61c-2.09-1.94-5.82,1.3-7.5,3.16a15.41,15.41,0,0,0-1.73,2.54,10.25,10.25,0,0,1,3.65-1.47,4.22,4.22,0,0,1,.49,0,5.85,5.85,0,0,1,.71,0,3.69,3.69,0,0,1,3.33,4,6.87,6.87,0,0,1-.56,2.51,13.46,13.46,0,0,1-5.11,6c-1.41.84-2.47.83-3.12.31a1.33,1.33,0,0,1-.26-.27,2.32,2.32,0,0,0,0,.37c-1.25.51-2.94,1.49-.29,2.39a6.36,6.36,0,0,0,.77,0,13.24,13.24,0,0,0,6.79-2.08,3.82,3.82,0,0,0,1-.54c.18-.12.83-.34.44.08a10.43,10.43,0,0,1-2.28,1.94c-1.33.64-2.74,1.56-4.08,2.27a12.91,12.91,0,0,1-1.33.61,5.3,5.3,0,0,1-1.21.32l-.28.05a7.1,7.1,0,0,1-1.52-.07,6.73,6.73,0,0,1-1.56-.44,5.49,5.49,0,0,1-3-2.71c-.68-1.45-.68-3.39.45-5.77a14,14,0,0,1,1-1.77,17.82,17.82,0,0,1,1.44-1.89l-.18.05c-2.07.48-3.16,1.82-4.52,3.13a12.49,12.49,0,0,1-1,.9c-.25.2-.5.39-.78.58a8.45,8.45,0,0,0-2.75,1.47c-1,.7-2,1.5-2.94,2.14a11.23,11.23,0,0,1-1,.64,3.4,3.4,0,0,1-1.4.5C96.58,247.11,96.87,246.69,97.12,246.26Zm77.2,55.21c-5.47-1.6.15-1.2-6.29-3.22-6.78-2.14-8.83-6.84-10.34-13.34-.52-2.21-3.94-2.31-4.27-3.68-.38-1.63,2.12-2.27,2.72-3,.8,3.45,10.86,14,11.54,13.91,4.87-.48,2.41,3.4,5.25,5.17,2.6,1.62,5.65,2.16,7.68,3.74.8.62-1.19,3.95,1.28,4.6,2.14.56,3.18,2.71,3.52,5.77-2.7.33-.71,3.05.1,4a12.82,12.82,0,0,1-.16,2.31c-1.36.35-1.24,8.32-.35,9.16a61.86,61.86,0,0,1-2.31,9.3c-.14.44-.28.83-.42,1.25a17.36,17.36,0,0,0-1.49,1.27c.12-.74.23-1.51.35-2.3C183,323.53,184.8,304.55,174.32,301.47Zm-58.73-46.55c-.33-.91-1.41-1.45-2.16-2.46a6.38,6.38,0,0,0,1.07,0,3.64,3.64,0,0,0,.44-.07C115.55,254.32,116.09,256.33,115.59,254.92Zm-24.15,8.34a76.64,76.64,0,0,0,19,68.28c0-.2-.05-.38-.08-.57-1-5.67,2.43-8.54,6.31-11a5.47,5.47,0,0,0,2.16-6.19A7.69,7.69,0,0,0,116,310a7.45,7.45,0,0,0-.83-.55c-3.17-1.75-7.4,1.44-7,4.33a3.23,3.23,0,0,0,1.66,2.37c3.05,1.91,5.08-1.56,4.59-1.23a5.28,5.28,0,0,1-1.62.76,2.88,2.88,0,0,1-2.37-.3,1.87,1.87,0,0,1-.79-1.5,3.36,3.36,0,0,1,2.69-3.49,4.75,4.75,0,0,1,5.26,3.41.08.08,0,0,1,0,.05,4.9,4.9,0,0,1-1.26,5.31,6.51,6.51,0,0,1-1.85,1.21,7.9,7.9,0,0,1-7.36-.35,6.8,6.8,0,0,1-2.83-3.94l-.11-.48s0-.05,0-.08c-.79-4.17,1.86-9.11,6.6-9.85a9.58,9.58,0,0,1,6.47,1.16,9.31,9.31,0,0,1,4.15,5.53c0,.17.09.36.13.53a12.85,12.85,0,0,1,.34,2.4c0,.31,0,.62,0,.94a10,10,0,0,0,1.43-1.64,7.26,7.26,0,0,0,1.38-3.36c1.06-.39,3.09-1,4.08,2.42,0-.12,0-.23,0-.34-.9-3.84-3.08-3.12-4.18-2.71a7.27,7.27,0,0,1-1.64,3.55c-.52-.59-1-1.18-1.53-1.78a9,9,0,0,0-4.52-6.11A60.55,60.55,0,0,1,107,268.1c.71-1.74,1.27-3.23,1.72-4.54-1.82-.92-1.13-2.95-2-6.18-.54-2.07-1.49-3.83-1.43-4.2a4.15,4.15,0,0,0,0-.49h0v-.51h0v0h0v0h0v0h0v0h0a5.24,5.24,0,0,1,0-1h0v0h0v0h0V251c.13-.91,1-1.16.8-2.22-1.28-3.38-.56-.61-1.36-1.78a2.66,2.66,0,0,1-.42-1.87,4.7,4.7,0,0,1,.65-.24c.11-.07.2-.15.31-.23a2.64,2.64,0,0,0,.41,1.93c.8,1.18-.34-1.56.94,1.83.24,1.06-.52,1.45-.64,2.36v.06h0v0h0v0a7.72,7.72,0,0,0,0,.95h0v0h0v0h0v0h0v0h0v.51h0c0,.16,0,.32,0,.49a3,3,0,0,0,.23,1.57h0l0,.08h0l0,.07h0l0,.07h0l0,.07h0l0,.07h0l0,.07h0l0,.07h0l0,.07h0l0,.06h0l0,.07h0l0,.07h0l0,.06h0l0,.07h0l0,.06h0l0,.07h0l0,.06,0,.06,0,.07,0,.06,0,.06,0,.06,0,.06,0,.06,0,.06,0,.06,0,.05,0,.06,0,.06,0,.05,0,.06,0,.05,0,.06,0,.05,0,.05,0,.06,0,0,0,.05,0,.05,0,.05,0,.05,0,0,0,.05v.09c.26,1.11.09,1.84.32,2.82l0,.12,0,.11,0,.11,0,.11,0,.11,0,.1,0,.11,0,.1,0,.1,0,.1,0,.09,0,.1,0,.09,0,.09,0,.09,0,.09,0,.08,0,.08,0,.08,0,.07,0,.08,0,.07,0,.06,0,.07,0,.06,0,.06,0,.05,0,.06,0,.05,0,0,0,0,0,0,0,0,0,0,0,0,0,0,.05,0h.41l.07,0,.06,0,.07,0,.07,0,.07,0,.08,0,.08-.05.08-.05.09-.05.09-.06.09-.06.1-.07.09-.07.11-.08.1-.08.11-.09.12-.1.11-.1.12-.1h0l0-.11h0l0-.12h0l0-.11h0l0-.11h0l0-.12h0l0-.11h0l0-.12h0l0-.11h0l0-.12h0l0-.11,0-.12,0-.12,0-.11,0-.12,0-.12,0-.12,0-.11,0-.12,0-.12,0-.12,0-.12,0-.12,0-.11,0-.12,0-.12,0-.12,0-.12,0-.12,0-.11,0-.12,0-.12,0-.12,0-.11,0-.12v-.05l0-.07,0-.11,0-.12,0-.11,0-.12,0-.12,0-.11,0-.11,0-.12,0-.11,0-.11,0-.11,0-.11,0-.12,0-.1,0-.11,0-.11,0-.11,0-.11,0-.1,0-.11,0-.1,0-.11,0-.1,0-.1,0-.1,0-.1,0-.1,0-.1,0-.09h0v0h0v0h0l0,0v0h0l0,0,0,0v0l0,0,0,0,0,0,0,0,0,0,0,0,0,0,0,0,0,0,0,0,0,0,0,0,0,0,0,0,0,0,0,0,0,0,0,0,0,0,0-.05,0,0,0,0,0,0,0,0,0,0h0l0,0h0l0,0h0l0,0h0l0,0h0l0,0h0l0,0h0l0,0h0l0,0h0v0h0l0,0h0v0h0v0h0v0h0v0h0v0h0v0h0v0h0v0h0v-.17l0,0v0l0,0,.1-.09.09-.08.08-.07.08-.06.08-.06.07,0,.07,0,.06,0,.06,0,0,0,0,0h.09l.12-.14c.34.16.62,1.11.73,1.57,0,.15.06.24.06.24v0h0v0h0l0,0h0l0,.06h0l0,0h0l0,.06h0l0,0h.11l0,0h0v0h.06a3.14,3.14,0,0,1,.81,1.29c.61,2.66,1,3.18,2.76,5.31.9,1.76,1.49,3.69,2.94,4.59a9.62,9.62,0,0,0,6.24,1.95c1-.24,2.63-.27,3.95-.58s2.27-.7,3.51-1c.87-.2,3.2,1.18,3.91,1.47,2.79,1.73,6.29.44,8.27,3.35,1.8,2.65,6,1.42,8.69,4.44a3.56,3.56,0,0,0-.83,1.5v0l0,.06c-.09.25-.18.52-.26.79v0h0l0,.14v0h0l0,.09h0v0l-.06.2V278l0,.06v.13l0,.09h0l0,.09,0,.09v0l0,.07v.27c0,.19-.06.36-.09.53v.15h0v.08h0v.07h0V280h0v.06h0v.26h0v.1c.63,2.71,1.24,4.49,2.88,5.79,1.22,1,1.46,1.39,2,3.29.22.93-.8,1.79.11,3.37l0,.05,0,0,0,0,0,.05,0,0,0,0,0,0,0,0,0,0,0,0,0,0,0,.05,0,0,0,0,0,.05,0,0,0,0,0,0,0,.05,0,0h0l0,0h0l0,0h0l.05,0h0l0,.05h0l0,0h0l0,0h0l0,0h0l0,0h0l0,0,0,.05h0l0,0h0l0,0h0l0,0h0l.05,0h0l0,0h0l.05,0h0l0,0h0l0,0h0l.05,0h0l.05,0h0l0,0h0l.05,0h0l0,0h0l0,0h0l.05,0h0l.05,0,0,0h0l.05,0h0l0,0h0l0,0h0l.05,0h0l0,0h0l.05,0h0l0,0h0l0,0h0l0,0h0l0,0h0l0,0h0l.05,0h0l0,0,0,0,0,0,.05,0,0,0a11.08,11.08,0,0,0,1.76.95l.19.12,0,0,.05,0,0,0,0,0,0,0,0,.05.05,0,0,.05.05.05.05.05.06,0,0,.05.06.06.05.06.06.05,0,.06.06.06.06.07.06.06.06.06.06.07.06.07.06.06.06.07.06.07.06.07.06.07.06.07.06.08.07.07.06.07.06.08.06.07.06.07.07.08.06.07.06.08.06.07.06.08.06.07h0l.06.08h0l.06.07h0l.06.08h0l.06.07h0c.39.5.75,1,1,1.37a9.68,9.68,0,0,0,1.36,1.74h0l.09.08h0l.09.09h0l.08.08.09.08h0l.09.08h0l.09.08.09.08.09.08.09.07.1.08.09.07.1.08.09.07.1.07.09.07.1.07.1.07.1.07.1.06.1.06.1.07.1.06.1.06.1.06.11.06.1.06.1.06.11.05.1.06.11.05.1.06.11.05.11,0,.1.05.11.05.11.05.11.05.1,0,.11.05.11,0,.11,0,.11.05.11,0h0l.11,0,.11,0,.11,0a22.08,22.08,0,0,1,4.59,1.67,5.29,5.29,0,0,1,2.21,3.38v0l0,0,0,0,0,0,0,0,0,0,0,0,0,0v0l0,0,0,0,0,0,0,0,0,0,0,0v0l0,0h0l0,0h0l0,0h0l0,0h0l0,0h0v0h0l0,0h0l0,0h0v0h0l0,0h0a1.57,1.57,0,0,1,.52.95c0,.12,0,.23.07.34h0v0h0v0h0v0h0v0h0v0h0v0h0v0h0v0h0v0h0v0h0v0h0v0h0v0h0v0h0v0h0v0h0v0h0v0h0v0h0V313h0v0h0v0h0v0h0v0h0v0h0v0h0v0h0v0h0v0h0v0h0v0h0v0h0v0h0v0h0v0h0v0h0v0h0v0h0v0h0v0h0v0h0v0h0v.23c.27,1.15-.21,2.47-.33,3.65-.09.77-.18,1.43-.27,2a14.51,14.51,0,0,0,.25,6.66c.4,1.71,1.1,3.86.16,5.06l0,0,0,0,0,0,0,0,0,0,0,0,0,0,0,.05,0,.05,0,0,0,.06,0,0,0,.05,0,.06,0,.06,0,.06,0,.07,0,.06,0,.07,0,.06,0,.07,0,.07,0,.08,0,.07,0,.07,0,.08,0,.07,0,.08,0,.08,0,.08,0,.07,0,.08,0,.08,0,.08,0,.08,0,.08v.08l0,.08v.08l0,.08v.08l0,.08h0v.08h0V334h0l0,.07h0l0,.08h0v.07h0v.08h0v.15h0v.07h0v.07h0v.06h0v.06h0v.07h0v.06h0v.06h0V335h0V335h0v.06h0v.05h0v.05h0v.05h0v.05h0l0,.09h0l0,.09h0l0,.1h0l0,.09h0l0,.1h0l0,.09h0l0,.1v.09h0l0,.09,0,.09h0v.1h0l0,.09h0v.09h0l0,.09v.18h0v.09h0l0,.09h0v.09h0v.09h0v.08h0v.09h0v.09h0v3.43l0,.1v.32l0,.07,0,.08v.08l0,.07v.16l0,.07v.15h0V342h0v.08h0v.07h0v.07h0v.07h0v.07h0v.15h0v.07h0q-.75.7-1.56,1.41v0h0v-.07h0v-.07h0v-.07h0v-.07h0v-.07h0v-.07h0v-.06h0v-.07h0v-.07h0v-.07h0v-.07c-.12-2.09.49-3.89.15-6.26h0v0a62.27,62.27,0,0,1-17.93-1.79,6.15,6.15,0,0,1-1.25,4.31,14.72,14.72,0,0,1-4.3,3.83c1.61-.68,2.78-1.15,3.63-1.44,2.55-.9,2.12-.25,1.42.65-.91,1.18-2.27,2.79,2,1.94l.84-.18c.69-.16,1-.12,1.17,0,.46.54-1.71,2.49-1.52,2.47a25.59,25.59,0,0,1,4.24-.25c1.66.13,2.52.78.09,2.79a6.91,6.91,0,0,1-2.92,1.42,14.81,14.81,0,0,1-6.35-.26c-4.83-1-9.88-2.89-13.58.24-.23.2-.47.37-.7.54l2.25.78c-1,.27-2.08.58-3.09.94a27.24,27.24,0,0,0-3.39,1.46,74.94,74.94,0,0,1-44.65-91.17Z"/><path class="cls-4" d="M131.84,347.59a.35.35,0,0,1,0,.08l0-.05c.37-.75,1.8-1.07,1.31-1.45A8.07,8.07,0,0,1,132,345c-.63-.77-.54-1.28-.15-1.63.9-.8,3.36-.86,2.61-1.61a13,13,0,0,1-1-1.13c-.76-1-.78-1.49-.36-1.72s1.79-.13,3.2.24a36.61,36.61,0,0,1,4.47,1.52c2.3,1,2-.21,1.38-1.94a17.28,17.28,0,0,1-1.28-4,3,3,0,0,1,0-.8,7.46,7.46,0,0,1,2.39-4.11,8.66,8.66,0,0,1,6.82-2.31,6.29,6.29,0,0,1,4.77,4.09,6.25,6.25,0,0,0-5.11-5.55,9,9,0,0,0-7.66,3.14,70.85,70.85,0,0,1-7.11-4.36,5.26,5.26,0,0,1-1.73,1.24,6.89,6.89,0,0,1-1.75.51c-4.55.76-6.29-2.45-11.14-1.32-1.41.33-1.83.89-1.83,1.58a9,9,0,0,0,.88,2.62,6,6,0,0,1,.21.64c1,4.43-2.22,6.13-5.16,5.46A77.29,77.29,0,0,0,131.84,347.59Z"/><path class="cls-4" d="M165.8,253.18c-1.28.21-2.15-.49-3.07-.49-.49,0-1.14-.08-1.78-.08-.92,0-1.82.12-2.19.9s-1.16,1.15-1.72,1.66a2.66,2.66,0,0,0-.41.47c-.26.43.11.51.63.46a10.89,10.89,0,0,0,1.49-.29c.92-.22,1.21-.72,2.08-.92l.62-.14c1.08-.25,2.15-.47,3.25-.66a7.45,7.45,0,0,0,1.6-.15c.16-.06,0-.47,0-.65S165.84,253.46,165.8,253.18Z"/><path class="cls-4" d="M156.69,253.68a1.36,1.36,0,0,0,.32-.2c.41-.41,0-1.47-.72-1.54a1.46,1.46,0,0,0-.29,0,10.48,10.48,0,0,1-2.66-.14,7,7,0,0,1-2.78-1.11,3.46,3.46,0,0,0-2-.54c-2.35.07-4.72,2.25-6.75,3.25-.95.65.2,1.81,1.13,1.59,1.39-.32,2-1,3.2-1.29a7.72,7.72,0,0,1,3.22-.09,18.13,18.13,0,0,0,3.21.45A14.47,14.47,0,0,0,156.69,253.68Z"/><path class="cls-4" d="M205.57,245.39h-.09a1.71,1.71,0,0,1,.22.61A4.85,4.85,0,0,0,205.57,245.39Z"/><path class="cls-4" d="M202.73,252.64a3.36,3.36,0,0,0,1.24.71,5.33,5.33,0,0,0,5.49-1.71c2.38-2.69,1.68-7.34-.13-9.33a6.9,6.9,0,0,0-2-1.56c.15.15.31.26.45.42,1.84,2.09,2.58,6.92.22,9.7A5.19,5.19,0,0,1,202.73,252.64Z"/><path class="cls-4" d="M200.8,257.81c5.48,2.79,15.67.43,14.83-8.73-.16-1.8-.68-1.73-1.12-.25-.15.49-.25,1-.36,1.39v0C213.62,257.4,206,259.54,200.8,257.81Z"/><path class="cls-4" d="M202.19,255.3c-2.25-1.33-3.59-3.85-2.44-7.25a6.26,6.26,0,0,1,.32-.75,4.51,4.51,0,0,1,1.52-2.5,2.85,2.85,0,0,1,2.48-.45,3.34,3.34,0,0,1,1.05.05c-1.61-2.37-5.77-1-6.92,2.65C196.85,251.29,199.08,254.23,202.19,255.3Z"/><path class="cls-4" d="M129.67,318a10.17,10.17,0,0,1,1.62-.23c2.46-.1,4,1,4.61,2.53-.17-1.92-1.79-3.62-4.83-3.46a9.14,9.14,0,0,0-1.62.23l-1.39.33a9.9,9.9,0,0,1-1,1c-.17.17-.16.22.17.17S128.32,318.35,129.67,318Z"/><path class="cls-4" d="M166.38,223a4.84,4.84,0,0,1-1.36-1c-.4,1.18,0,2.38,1.89,3.23,2.8,1.3,7.15-1,6.36-4.37a10.67,10.67,0,0,1,2.62.7,5.08,5.08,0,0,0,3.1-.19c1.13-.42,1.66-2.56,3.11-1.91a2.72,2.72,0,0,1,.9.86c.57-1-.72-2.87-1.45-3.21-1.46-.7-2,1.53-3.1,1.95a4.85,4.85,0,0,1-3.1.17c-1.08-.26-1.09-.61-2.63-.75C173.53,222.05,169.2,224.4,166.38,223Z"/><path class="cls-4" d="M192.68,332h.15a1.88,1.88,0,0,1-.12-.18Z"/><path class="cls-4" d="M111.4,245a3.78,3.78,0,0,0,0,.76,2.45,2.45,0,0,0,.44,1.07,9.42,9.42,0,0,1,1.92-4.18c.12-.17.25-.31.37-.47l.16.15c.05-.19.12-.39.19-.59a8.79,8.79,0,0,1,.51-1.09,7.59,7.59,0,0,1,2-2.19c1-.78,2.1-1.14,2.51-.62-.17-.94-.65-1.28-1.28-1.26-1,0-2.24.92-3.47,2.23a15.86,15.86,0,0,0-1.46,1.76,13,13,0,0,0-1.41,2.56A6.57,6.57,0,0,0,111.4,245Z"/><path class="cls-4" d="M151.25,221.17a5,5,0,0,0,2.44.72,9,9,0,0,1,6.05,2.21c1.42-.63,3-1.38,4.23-1.84a4.52,4.52,0,0,0,.85-.44c-1.21-1.59,0-3.59,2.07-5a10.48,10.48,0,0,1,2.16-1.11c.2-.08.42-.15.65-.22.78-.24,1.67-.45,2.38-.63,1.31-.33,2-.58.36-.83-.35-.06-.78-.11-1.36-.16-.24,0-.51,0-.77,0-4.36-.11-10.25,2-14.51,3-.45-1.35-7.07.54-5,3.89A1.58,1.58,0,0,0,151.25,221.17Z"/></g><circle class="cls-5" cx="365.46" cy="365.46" r="361.03"/><circle class="cls-6" cx="365.46" cy="365.46" r="339.36"/><circle class="cls-7" cx="365.46" cy="365.46" r="326.47"/><g class="cls-3"><path class="cls-4" d="M510.21,244.66l.14,4.42-.1.07c.06.76.14,1.51.26,2.27a34,34,0,0,0,4.36,12.21c.62,0,1.25,0,1.91,0h.07a32.38,32.38,0,0,1-.91-33.55,33,33,0,0,0-2.76,19.08c.1.65.23,1.29.36,1.92-.1.63-.12,1.15.05,1.33s.27.22.34.29.09.31.13.47,0,.21,0,.37a2,2,0,0,0,.66,1.75c.32.88.67,1.75,1.06,2.59a4.1,4.1,0,0,0-.12,1.24c.06.4,1,1.18,1,2.08a7.3,7.3,0,0,1,1.87,1.51l.61.87h.16c1.65-.06,3.36-.16,5.14-.34,1.39-.13,2.82-.31,4.28-.51l1.09-.16.84-.13a.58.58,0,0,0-.18-.21,2.14,2.14,0,0,0-1.08-.06l-.56-.53c-1.37-3.38-2.45-7.1-4.4-7.47a3,3,0,0,0,0,1c-.27,1,1.37,3.42,1.81,4.42a5,5,0,0,0,2.56,2.08c-.12,1.11-2.57-.89-3-1.8s-3.5-3.36-3.22-4.38a4,4,0,0,1,.8-1.73,27.94,27.94,0,0,1-1.19-3c1.5.19,3-.45,3.12-1.3-.45.14-1.12-.08-1.72.1-1.17.36-1.4-.93-1.85-1.09a3.47,3.47,0,0,0-.3-.85c.18-.51.29-.93.31-1-.1-.39-.71-1.12-.28-1h0a3.2,3.2,0,0,1-.5-.32l-.22-.19h0a2.75,2.75,0,0,1-1-2.87c.2-.47.65-.36,1-.17.23.12.44.27.57.33a1.11,1.11,0,0,1,.29.27c-1.25-1.6.34-.37-.64-2.1a2.7,2.7,0,0,1-.11-1.14c0-.4.08-.8.13-1.2,0-.05,0-.11,0-.15.29-1,.85-1.54.39-2.13.14-.65.31-1.29.5-1.93-.7.38-1.57.67-1.94-.22-1.21-2.87,2.72-6.42,4-6.07-1.09.25-3.56,2.73-3.11,5.12a.86.86,0,0,0,1.18.77h0c2.74-3.85,2.63-4.85,2.44-5.51.22-.37.46-.72.69-1.08.17,0,.32,0,.43-.18a7.37,7.37,0,0,0,.28-.89l.32-.42h0c1.4-.36,1.75.37,1-.92a.48.48,0,0,1-.09-.23l.18-.2c.28-.09.81,0,1-.27.06-.07-.1-.45-.09-.57s.8-.53,1-.61c.41-.2,0-.4.44-.7s.94-.6.56-1c-.18-.5.21-1.09,3.34-2.39l.08,0c.38.05.82.19.37.91a3.72,3.72,0,0,1-3.53,1.7c.41.67,4.47.21,5.28-1.8.36-.91-1.52-.85-2-.9.43-.28.88-.54,1.33-.79a.47.47,0,0,1,.06.09c.7,1.61,11.08-2.13,12.82-3.38l.32-.19a27.74,27.74,0,0,1,28,27.68c.2,1.36.37,2.71.66,4a1.6,1.6,0,0,1-.09.84l1-.6.66-.4h0c0-.14,0-.29,0-.43,0-.37,0-.73,0-1.1v-.1h0c-.07-1-.17-2.08-.33-3.13a34.18,34.18,0,0,0-25.68-28h0l-.45-.1-1.06-.23-.55-.1-1.08-.18-.58-.07c-.35,0-.71-.1-1.06-.13l-.64-.05-1-.07-.7,0-1,0-.83,0-.87,0-1,.08-.69.05c-.57.06-1.15.13-1.72.22-.87.13-1.72.31-2.56.5l-.48.11c-.8.2-1.6.43-2.38.68l-.42.14c-.79.27-1.57.56-2.33.88l-.06,0c-.77.34-1.53.7-2.27,1.08l-.39.21c-.72.38-1.43.79-2.12,1.22l-.29.19c-.69.45-1.37.91-2,1.41l0,0c-.67.51-1.31,1-1.94,1.59l-.28.25c-.61.55-1.21,1.12-1.78,1.71a.34.34,0,0,0-.06.06h0a34.12,34.12,0,0,0-9.51,22.13Zm25.46-29.53A21.25,21.25,0,0,1,538,213.8c1.49-.6,2.65,0,3.9-.11s5.45-.61,2.31.63a24.48,24.48,0,0,1-5.64,1.37c-.52.07.33-.63.45-.71l-.63.14C537.63,215.21,534.26,215.92,535.67,215.13Z"/><path class="cls-4" d="M535.51,277.39a32.5,32.5,0,0,1-12.59-6.74l-2.25.28a34.2,34.2,0,0,0,23.63,9.48h0c.75,0,1.51,0,2.27-.09l.54,0c.77-.07,1.54-.15,2.32-.27.56-.09,1.13-.19,1.68-.3l.55-.13,1.1-.25.65-.18,1-.28.69-.22.89-.31.69-.26.85-.34.69-.3.8-.37c.23-.11.46-.22.68-.34s.52-.26.77-.4l.68-.37.74-.43.65-.41.71-.46.64-.43.67-.49.63-.47.64-.51c.2-.17.41-.33.61-.51l.6-.53c.2-.17.4-.35.59-.54l.57-.54.58-.58c.17-.18.34-.37.52-.55s.38-.41.56-.62l.47-.55c.19-.22.38-.44.56-.67l.4-.51.58-.75.07-.11c.52-.72,1-1.47,1.49-2.23a2.13,2.13,0,0,1,.16-.25c.18-.31.35-.62.52-.93.09-.15.18-.3.26-.45.16-.3.31-.6.46-.9s.18-.35.26-.52.28-.6.41-.9l.25-.55c.13-.3.24-.61.36-.91s.15-.38.23-.58.21-.61.32-.92.13-.39.2-.59.19-.62.28-.93.11-.41.16-.61.17-.63.24-.95.1-.41.14-.61.09-.39.13-.59h0c-.75.43-1.52.85-2.31,1.27a4.57,4.57,0,0,1-3.27,4,1.28,1.28,0,0,1-1.08-.11,1.14,1.14,0,0,1-.16-.15,1.35,1.35,0,0,1-.93-.53c-.27.36-.53.74-.8,1.13s-3.78,4.18-2.88,0a170.13,170.13,0,0,1-19.28,6.9c-3,.89-6,1.68-9,2.39l-.34.08-.7.17-2,.44c-1,.21-1.95.42-2.91.61q-3.09.61-6.07,1.09l-.53.08c.77.6,1.56,1.16,2.37,1.69a7.35,7.35,0,0,0,2.42,2,8.85,8.85,0,0,1,1.81.29,30.08,30.08,0,0,0,3.45,1.35l1.14.36.12.08c.72.58,2.17.72,3.61.76a30.63,30.63,0,0,0,3.85.42h0a33.48,33.48,0,0,0,6.6-.34,33.11,33.11,0,0,0,11.1-3.8l.37-.19a32.45,32.45,0,0,1-26.88,4.47Zm19-13.32a2.5,2.5,0,0,1,.49-.71,1.51,1.51,0,0,0-.13.25c-.27.75-.88,2.06.89,2.16,3,.17,5.59-2.72,5.73-4.11.64,1.53-2.48,5.85-6.22,4.81C553.54,266,554.24,264.81,554.51,264.07Z"/><path class="cls-4" d="M574.75,254.52c-.68.36-1.38.72-2.09,1.07l-.75.36c-.16.48-.33,1-.47,1.63h0a1.4,1.4,0,0,0,.84-.17A5,5,0,0,0,574.75,254.52Z"/><path class="cls-4" d="M543,259.08a4.81,4.81,0,0,1,1.23.54c1.61-.42,3.24-.86,4.87-1.34a147,147,0,0,0,17.69-6.41c.16-.07.32-.13.48-.21l.45-.2c1.51-1.62,2.71-5.25.56-7.8a2.2,2.2,0,0,0-3.66.32c-.42,1.12.7,2.41.52,2.81a3.85,3.85,0,0,0,.27-1.78c-.54-1.53,1.11-1.88,2.05-.11.2.37.82.25.93.63s-.25,1.49-.22,2a6.85,6.85,0,0,1-.87,3.68c-.45-.95-3.6-1.79-5.1.84-.29.5-.6,1-.83,1.47-.41.83-.66.72-.82-.36-.14-.92.48-1.24.34-2.15-4.78-1.26-1.9,3.23-4.34,4.2s-.37.73-3.11.19c-1.56-.31-4.05,1.43-5.46.74-1.87-.91-3.57-2.41-2.53-5.63.38-1.18-.4-1.68.1-2.7.28-.57,3-1.18,3.05-.76,0,0-.07,0-.17,0a6.77,6.77,0,0,1-.9.23,5.31,5.31,0,0,0-1.34,2.88c.36-1,1.75-2,2.24-2.68a.87.87,0,0,0,.17-.46h0a3,3,0,0,0,.15-1.33l.19-.06a6.7,6.7,0,0,1,2.08-.07c.84.19,1,1.49,2.12,1.47s1.64,1.43,1.82,2.61c.27,1.76,1.25,2.39-.22,4.11a1,1,0,0,1-.27.89c.55-.36,1.35-1.39,1.27-2a2.33,2.33,0,0,0,.67-1.26v-.15c0-.66-.74-1.11-.93-2.31s-.35-3.16-1.61-3.14-1.23-1.36-2.12-1.55a11.07,11.07,0,0,0-2.55.51,1,1,0,0,0-.6.34c-.39-.88-1.38-1.35-2.11-2.47-.59-.93-.73-2-1.45-2.65-1.5-1.35-1.81-.5-2.25-3.39-.34-2.24-1.9-1.86-3-3-.61-1.7-1-3.17-.3-4.45.55-1-1.32-1.59-1.78-1.64-1.67-.17.25-3.13-1-4.05-2-1.49-2.31,3.06-2.76,3.29-2.87.16-4.2.72-3.72,3.82.2,1.31.82,2,.11,3.24s-2,3.66-.74,5.18c.51.59,1.18,1.54,1.87,2.2s0,2.19,0,2.77c.32,5.71,2.36,1.71,4.61,3.22a2,2,0,0,1,.25,3.5,7.42,7.42,0,0,0-1.8,3.88,2.75,2.75,0,0,0-.17-.43c-.28-.53-.77-1.21-.65-1.71a10.06,10.06,0,0,0-4.27-3.64,1.81,1.81,0,0,0-.29,0h0c-1,.07-1,2.82.55,4.38,0-.19-.12-.78-.18-1.35a4,4,0,0,1,0-1c0-.21.11-.35.25-.36,1,0,2.91,1.83,3.27,2.75-.1.45.31.85.56,1.32a6.94,6.94,0,0,1,.5,2.13c.1.62,0,.95-.28,1.07a1.75,1.75,0,0,0,.54-.06,4.37,4.37,0,0,0,.29,1.22,15.63,15.63,0,0,0,1.52,2.56c2.29-.46,4.64-1,7-1.6a3.25,3.25,0,0,0-.86-.35c-.14-.46-1.42-.74-1-1.9.33-.91-.31-2,.89-2.18-.16.45,0,1.13-.18,1.72C541.58,258.33,542.86,258.62,543,259.08Zm-4.75-24.21c-.27.24-1,1.33-1.56.22-1.27-2.39.29-5.34,1.09-5.05-.58.21-1.33,1.77-.59,3.76.43,1.17.91,1,1.18.79l.08-.11A1.12,1.12,0,0,1,538.25,234.87Z"/><path class="cls-4" d="M546.08,233.63c-1.79-.18-1.56,1.17-1.58,2a2.64,2.64,0,0,0,.21.84,1.67,1.67,0,0,1,0-.28c0-.79-.09-2.24,1.6-1.69,2.9.93,4.24,4.54,3.87,5.89C551.29,239.16,549.94,234,546.08,233.63Z"/><path class="cls-4" d="M570.88,236.45c.48,0,.8-.32.66-1.27a7.71,7.71,0,0,0-.56-2.36c-.28-.53-.74-1-.62-1.48-.41-1-3-3.92-4.12-3.87s-1,2.82.53,4.38c0-.41-.95-3.39-.37-3.41,1,0,3.34,2.56,3.7,3.48-.1.45.31.85.56,1.32a6.94,6.94,0,0,1,.5,2.13C571.26,236,571.13,236.32,570.88,236.45Z"/><path class="cls-4" d="M561.26,219.35c-.41-1-3.38-1.3-4.36-1.82s-4-.55-3.46.4a4.93,4.93,0,0,1,3.3.08c1,.52,3.74,1.42,4.14,2.38.35.21,1.53,2.43,1.33,3.2a2.56,2.56,0,0,0,.2-.26C562.83,222.71,561.64,219.58,561.26,219.35Z"/><path class="cls-4" d="M562.16,233.26c.82-.92-.26-1.67-.21-2.14-1-.66-1.64-2.5-2.93-2.3a1.43,1.43,0,0,0-.55.15c1.11.08,1.75,1.7,2.64,2.31,0,.48,1,1.22.22,2.14-.42.46-.5,1.17-.82,1.52C561.67,235.27,561.52,234,562.16,233.26Z"/><path class="cls-4" d="M520.71,242.67a1,1,0,0,0-.24.52,2.24,2.24,0,0,0,.38,1.69,2.41,2.41,0,0,0,.76.74,2.45,2.45,0,0,0,0-2.9.38.38,0,0,0-.11-.08A.65.65,0,0,0,520.71,242.67Z"/><path class="cls-4" d="M526.94,237.92s-.43.17-.45,0c-.31.53-.91,1.3-.35,1.69a4.86,4.86,0,0,0,.62.35c.22.11.25.16.45.27.66.38.53-1.08.53-1.6a2.52,2.52,0,0,0-.44-1C527.14,237.52,527,237.87,526.94,237.92Z"/><path class="cls-4" d="M541.46,224.78c-.37-.46-1.61.8-1.69,1v.85c0,.4.92,1.48,1.1,1.62s.69-.35.78-.45c.26-.26.06-.87-.32-1.1C540.52,226.22,542,225.47,541.46,224.78Z"/><path class="cls-4" d="M559.1,249.05a1.62,1.62,0,0,0,.71.15c.56,0,.78-.3,1.13-.57.12-.09.27-.17.28-.28s-.35-.67-.42-.78l-.35-.5c-.13-.08-.36-.13-.5-.21s-.31-.28-.7-.28c-.1,0-.54.28-.29.49,0,.2.28,1,.14,1.21S558.94,248.92,559.1,249.05Z"/><path class="cls-4" d="M517.74,270l1.79-.17c.71-.08,1.43-.16,2.16-.26s1.68-.21,2.54-.34l.4-.06c1.81-.26,3.68-.58,5.58-.94l2.33-.46q1.8-.36,3.63-.78l1.07-.25.06,0c3.07-.72,6.22-1.54,9.41-2.48a166.89,166.89,0,0,0,20.17-7.31c.93-.41,1.85-.82,2.74-1.24s1.87-.89,2.77-1.34l.33-.17.91-.46,1.47-.77.34-.18c.9-.48,1.77-1,2.61-1.46h0c10.12-5.88,15.89-11.91,14.58-16.38-.6-2-2.59-3.53-5.67-4.53h0a5.56,5.56,0,0,1,3.08,3.22c.65,2.23-.67,4.89-3.55,7.71a30.05,30.05,0,0,1-2.45,2.15c-.91.72-1.91,1.45-3,2.19-.7.47-1.44.94-2.21,1.42l-.44.27h0l-1.58.93-1,.56h0l-.54.3c-.54.3-1.09.59-1.65.88s-1.34.69-2,1c-2.06,1-4.26,2-6.57,3l-.54.23a152.58,152.58,0,0,1-15,5.26c-1.14.33-2.28.65-3.41.95l-1,.28c-2.75.72-5.44,1.34-8,1.88q-2.79.57-5.45,1l-.48.08-2,.3c-1.3.18-2.56.33-3.79.46-1.72.18-3.38.32-5,.39h-.22c-.81,0-1.59.06-2.36.07h-2c-6.42-.12-11.15-1.27-13.28-3.47a4.29,4.29,0,0,1-1.08-1.81c-.92-3.11,2.06-7.09,7.76-11.18l-.05-1.7a71.25,71.25,0,0,0-9.27,5.89c-.52.39-1,.78-1.47,1.17-3.66,3.05-5.85,6-6.19,8.56a5.64,5.64,0,0,0,0,1.08,5.73,5.73,0,0,0,.17.92,5,5,0,0,0,.29.73,5.45,5.45,0,0,0,1.2,1.55C497.24,269.91,506.1,271,517.74,270Z"/><path class="cls-4" d="M585.69,231.13a1.76,1.76,0,0,0,.67-1.38,1.72,1.72,0,0,0-.33-1,1.76,1.76,0,0,0-1.43-.75,1.74,1.74,0,0,0-.56.1,1.76,1.76,0,0,0-1.19,1.59.2.2,0,0,0,0,.07,1.77,1.77,0,0,0,1.76,1.77A1.75,1.75,0,0,0,585.69,231.13Z"/></g><g class="cls-3"><path class="cls-4" d="M450.34,415.09l-2.6.09a4.43,4.43,0,0,1-4.07,2.24l-.82,1.75C446.6,419.46,449.82,417.74,450.34,415.09Z"/><path class="cls-4" d="M442.32,410.29l.81-1.74c-3.6-.3-6.72,1.28-7.43,3.75l2.68-.08A4.62,4.62,0,0,1,442.32,410.29Z"/><path class="cls-4" d="M447.83,413.5l2.57.77c-.06-2.52-2.57-4.84-6-5.54l.37,1.93A4.56,4.56,0,0,1,447.83,413.5Z"/><path class="cls-4" d="M441.49,417.15c-1.93-.56-3.3-1.89-3.46-3.34l-2.48-.75c-.21,2.73,2.52,5.31,6.3,6Z"/><path class="cls-4" d="M447.09,415.2l-2.42.07-.79,1.71A3.93,3.93,0,0,0,447.09,415.2Z"/><path class="cls-4" d="M441.4,416.67l-.38-2-2.38-.72A3.93,3.93,0,0,0,441.4,416.67Z"/><path class="cls-4" d="M442.11,410.73a4.11,4.11,0,0,0-3.06,1.47l2.41-.08Z"/><path class="cls-4" d="M447.19,413.31a4.07,4.07,0,0,0-2.37-2.17l.29,1.55Z"/><path class="cls-4" d="M619.46,417.45c0-.18-.09-.35-.13-.52q-.27-1.12-.63-2.22c-.33-1-.7-2.07-1.13-3.08-.32-.77-.68-1.52-1.05-2.27-.12-.23-.26-.44-.38-.66-.25-.47-.52-.94-.79-1.41l-.48-.84c-6-9.78-16.63-18-29.68-23.05h0c-.89-.34-1.8-.68-2.71-1l-.4-.14q-3.51-1.2-7.21-2.09l-.57-.13c-1.06-.24-2.13-.47-3.2-.67l-.6-.12c-1.26-.23-2.53-.44-3.82-.61s-2.55-.31-3.83-.42l-.83-.07c-1.21-.1-2.43-.17-3.65-.22l-.5,0c-1.23,0-2.44,0-3.65,0l-1.06,0c-.89,0-1.78.06-2.66.11l-1,.07c-1.15.08-2.28.18-3.4.32h-.14c-1.13.14-2.25.31-3.35.49h-.05l-.84.15h0c-.85.15-1.69.32-2.51.5l-.7.14.35-.07-.53.12c-1.06.24-2.12.51-3.15.8s-2.12.63-3.15,1l-.77.26-.17.07c-.74.26-1.47.53-2.18.81l-.69.27a61.3,61.3,0,0,0-5.59,2.66L522,386c-.72.4-1.43.82-2.12,1.25l-.49.31a47.54,47.54,0,0,0-4.71,3.45l-.44.38c-.61.52-1.19,1.05-1.76,1.59-.12.12-.24.22-.35.34a39.13,39.13,0,0,0-3.65,4.12,31.33,31.33,0,0,0-6.57,17.35c.18.34.38.69.57,1,9.51,17.21,34.93,34.13,67.61,42.08,2.09-.22,4.12-.56,6.12-.94,24.26-4.66,41-20.6,39.54-40.11,0-.35-.06-.7-.1-1.05a32,32,0,0,1,.57,4c1.33,17.8-12.72,32.57-33.79,38.29-1.8.49-3.63.94-5.53,1.29q3.42.67,6.93,1.22l1.49.23c1.81-.46,3.58-1,5.28-1.57l.11,0h0c10.68-3.69,19.2-9.83,24.32-17.51.37-.55.73-1.12,1.06-1.69l.35-.61c.28-.52.56-1,.81-1.57.11-.21.21-.42.31-.64.27-.58.51-1.17.74-1.76l.19-.46c.28-.76.53-1.52.75-2.3,0-.11.05-.22.08-.33.18-.66.33-1.32.47-2,0-.24.08-.5.13-.75.09-.54.17-1.09.23-1.64l.09-.84c0-.5.06-1,.08-1.53,0-.05,0-.11,0-.16l0-.76c0-.52,0-1,0-1.56,0-.31,0-.61,0-.91-.06-.71-.14-1.4-.23-2.1C619.84,419.23,619.66,418.34,619.46,417.45Zm-110.58-1a26.35,26.35,0,0,1-.5-3.42c-.91-12.09,7-22.45,19.56-28.23a9.44,9.44,0,0,1-.94,1.64c-.64.82-2.82.48-3.31,1.11a13.1,13.1,0,0,0-2.51,1.67c-1,.92-1.27,1.84-.42,3a6.26,6.26,0,0,0,.81.86,7.68,7.68,0,0,1,1.56,2.17c.48,1.15,0,2.43.82,3.13a11.11,11.11,0,0,0,.82,2.77c.43.79,1.46,1.27.75,2.18-1.28,1.64-3,4.76-.7,5.78a10.14,10.14,0,0,0,3.39-.88c.42-.23.33-.45.74-.59.1,0,.22-.4.32-.41s.25.19.4.18.88-.48,1.13,0a3.6,3.6,0,0,1,.05,1.32c-.22,1.37-1.81,3-2.9,4.42-1.8,1.68-1.37,1.09-3.41,1.24-1.89.14-5.31,2.05-3.8,3.83a7,7,0,0,0,3.72,1.49c.92-.22,2.58-.82,3.5-.65,2.32.35,2.15.22,3.64.89.44.2.26.12.5.41s0,.3-.12.5c2,1.56,6.34,5.1,8.4,2.47a27,27,0,0,1,3.48-3.43c1.67-1.57-.14-3.82-.82-5.91-.93-2.79-4.49-3.37-7.27-5.65a11.2,11.2,0,0,1,4.31-.65c2-.14,4.64-2.71,4.44-4.66a5.25,5.25,0,0,0-.82-2.77,36.26,36.26,0,0,1-2.68-2.49c2-1.22,1.66-1.11,3.61-1.15.68,0,1.27.12,1.76-.51,1.63-2.09-2-2-2.95-3.53-.42-.47-1.69-1.51-1.67-2,0-1.09,3.76-.21,4.53-.93s.83-.9.47-2c-.13-.39,0-1-.26-1.41a6.35,6.35,0,0,0-.89-.95c-2.7-.71-3.56-1-4.71.48-.7.89-3.41,2.5-2.68,3.78.27.47.43.18.49.77,0,.18.67.83.78,1.09s.65,1,.57,1.36c-1.13,1.44-2.58,4-4.45,4.66a2.55,2.55,0,0,1-2.33-.49,5.92,5.92,0,0,1-1-1.55c0-1.82-.19-1.49.7-2.64,1.24-1.58,1.52-2.8.65-4.32-.24-.42-1-1.68-.94-2.27.17-1,.81-.85,1.57-1.32,1.69-.93,3.29-1.84,2-2.87A61.63,61.63,0,0,1,553.74,380c26.47.78,49.1,16.86,50.53,35.92a24.71,24.71,0,0,1,0,3.44c-1.38-1.59-4.53-2.24-7.5-2.85a24.43,24.43,0,0,1-4.78-1.27c-.39-1.31-.45-3-1.92-3.81-2-1.06-3.51-1.21-5.44-2.07-1.75-.78.65-2.39,1.42-2.87,2.55-3.27,3.64-4.65-1.4-6.91-1.66-.74-3.65-1.45-5-2.25-1.61-.92-2.45.7-3.23,1.7-.14.5-.67,2.82-1.83,3s-2.82.21-3.5.65c-1.51,1-.1,3.56,1.27,5s-1.62,4.07-3.78,3.1c-1.18.11-2.08.18-2.77.22.31.09.42.26,0,.57a3.93,3.93,0,0,1-4.78-.48c-2.72-2.28-2.48.87-2.52,2.19,0,1.08-.72,1.61-2.09,1.28-2.24-.53-1.83-1.12-3-2.08a6.38,6.38,0,0,0-2.25-3.59c-.93-.55-2.14-.48-3.78.53-2.66,1.63-2.1,6.07.78,7.36a9.24,9.24,0,0,0,1.85.41c3.25.49,9.17,1,8.89,2.18-1.19,2-1,1.51-2.92,1.65a7.18,7.18,0,0,0-.92.14c-.4.12-1.1-.07-1.43.1-1.08.52-.88,1.1-.28,2.09.31.51.45.35.5.41a5,5,0,0,0,.59.63,3.71,3.71,0,0,1,.79.72c-1-.3-1.11,0-2,.42s-2.65.22-4.46.27a7.4,7.4,0,0,0-2.92.49c-3.37,1.65-3.37,6.61-.48,8.27.65.37,1.3.86,2,1.34a11.08,11.08,0,0,0,4.13,2c1.49.3,6.22.88,7,.38,4.15,1.17,7.61.91,11.1.73,2.57-.14,4,1.49,2.76,3.08s-5,2.14-7.09,1.43c-2.64-.88-6.85-.82-9.45-1.46,3.4,2.59,7.23,2.32,11,4a8.11,8.11,0,0,1,3,2.31,64.13,64.13,0,0,1-11,.63,67.92,67.92,0,0,1-11.72-1.41C529.93,439.58,516.92,428.55,508.88,416.46Z"/><path class="cls-4" d="M597.42,375.18l-.48-2.54c-2.59-.75-4.44-2.54-4.65-4.49l-3.34-1C588.67,370.81,592.34,374.28,597.42,375.18Z"/><path class="cls-4" d="M608.84,369.88l-3.5.11c-.73,1.75-2.89,2.92-5.47,3l-1.1,2.35C603.8,375.75,608.14,373.43,608.84,369.88Z"/><path class="cls-4" d="M605.46,367.74l3.46,1c-.08-3.39-3.46-6.5-8.12-7.45l.49,2.59A6.13,6.13,0,0,1,605.46,367.74Z"/><path class="cls-4" d="M598.05,363.42l1.1-2.34c-4.85-.41-9,1.72-10,5l3.61-.11A6.2,6.2,0,0,1,598.05,363.42Z"/><path class="cls-4" d="M596.81,372l-.5-2.64-3.2-1A5.27,5.27,0,0,0,596.81,372Z"/><path class="cls-4" d="M604.61,367.48a5.47,5.47,0,0,0-3.2-2.91l.4,2.07Z"/><path class="cls-4" d="M597.78,364a5.61,5.61,0,0,0-4.12,2l3.24-.1Z"/><path class="cls-4" d="M604.47,370l-3.25.1-1.07,2.3A5.24,5.24,0,0,0,604.47,370Z"/><path class="cls-4" d="M548.26,376.69c-27-5.95-51.07-3.56-61.58,7.89-7,7.66-6.79,18.06-.74,29.09,4.79,8.72,13.21,17.82,24.6,26.27.56.42,1.12.84,1.7,1.25a155.16,155.16,0,0,0,20,12.11c4.19,2.14,8.44,4.07,12.7,5.84q3.26,1.33,6.49,2.53c1.19.44,2.39.89,3.57,1.3a161.18,161.18,0,0,0,24,6.26c24.5,4.32,45.79,1.49,55.5-9.09,10.74-11.7,4.54-29.8-13.51-46.75.21.67.41,1.34.58,2,16.18,16,21.44,32.89,11.32,43.9-9.29,10.13-29.4,13-52.69,9.17a154.23,154.23,0,0,1-24.13-6.08c-.33-.11-.66-.2-1-.32-1.67-.57-3.35-1.19-5-1.82a168.92,168.92,0,0,1-17.25-7.64,148.21,148.21,0,0,1-23.14-14.51c-.62-.48-1.22-1-1.83-1.46-9.54-7.66-16.62-15.76-20.71-23.52-5.53-10.52-5.58-20.41,1.14-27.73,9.83-10.71,31.78-13.32,56.8-8.44C546.13,376.85,547.2,376.77,548.26,376.69Z"/><path class="cls-4" d="M541.11,377.5c-22.43-3.61-41.76-.78-50.72,9-6.31,6.87-6.45,16.08-1.59,25.92,3.35,6.77,9.06,13.84,16.8,20.66.5.44,1,.87,1.53,1.31a138.93,138.93,0,0,0,26.5,17.37,167.33,167.33,0,0,0,21.63,9.19l.83.27c1.8.6,3.59,1.19,5.38,1.72a144.1,144.1,0,0,0,20.37,4.54c21.67,3.19,40.25.29,49-9.22,9.32-10.15,5.2-25.4-8.68-40.24.12.69.2,1.39.27,2.09a27.75,27.75,0,0,1,.09,3.15c9.49,12.27,11.58,24.35,3.89,32.73-7.52,8.2-22.86,11.15-41.07,9.25a123.36,123.36,0,0,1-13.93-2.28c-1.41-.31-2.83-.64-4.25-1q-5.71-1.45-11.54-3.45a155.75,155.75,0,0,1-20.25-8.6c-13.16-6.72-23.91-14.6-31.63-22.64-.28-.29-.56-.57-.83-.86a53.87,53.87,0,0,1-10.54-15.54c-3.5-8.39-3-16.17,2.48-22.1,7.14-7.79,21.33-10.85,38.34-9.52A73.91,73.91,0,0,1,541.11,377.5Z"/><path class="cls-4" d="M525.07,382c1.53-.64,3.09-1.25,4.73-1.79-14.66-.52-26.72,2.56-33.07,9.47-5.06,5.52-5.77,12.7-2.82,20.47a47.84,47.84,0,0,0,8.42,13.57c.18.21.34.41.52.61,7.59,8.74,19,17.43,33.22,24.71a151,151,0,0,0,19.67,8.36,142.16,142.16,0,0,0,15.82,4.44c1.26.27,2.5.51,3.75.74a111.4,111.4,0,0,0,11.54,1.58c16.69,1.38,30.63-1.58,37.62-9.2s5.65-18.43-2.14-29.56a25.84,25.84,0,0,1-.51,3.17c5.52,9.47,5.93,18.45-.07,25-6.22,6.77-18.19,9.69-32.66,9-2.76-.13-5.61-.37-8.53-.76-1-.13-1.92-.28-2.9-.43A130.83,130.83,0,0,1,556,456a144.32,144.32,0,0,1-18.84-8c-15.86-8.11-28-18-35.05-27.73l0-.05a39.48,39.48,0,0,1-5.77-10.94c-2.2-6.86-1.32-13.18,3.21-18.12C504.64,385.47,513.8,382.49,525.07,382Z"/><path class="cls-4" d="M524.6,461.58a221,221,0,0,0,28.87,12.26q6.12,2.12,12.19,3.79c38.44,10.68,74,8.63,88.67-7.37a25.28,25.28,0,0,0,5.37-9L661,452c-.8-21.46-25.15-48.75-64.4-68.81a220.91,220.91,0,0,0-28.86-12.26c-42.93-14.75-84.64-14.1-100.86,3.58a25.16,25.16,0,0,0-5.38,9l-1.3,9.34c.32,8.44,4.29,17.78,11.36,27.23C482.47,434.58,500.79,449.41,524.6,461.58Zm-54.2-85.31c15.62-17,55.75-17.65,97.07-3.45a213.76,213.76,0,0,1,27.77,11.79c49.81,25.46,74.69,63,55.56,83.84-13.83,15.07-46.88,17.28-82.95,7.74q-7-1.86-14.11-4.28A214,214,0,0,1,526,460.11c-23.54-12-41.5-26.77-51.89-41.16C462.48,402.89,460.32,387.26,470.4,376.27Z"/><path class="cls-4" d="M527,459a209.16,209.16,0,0,0,27,11.46c5.22,1.79,10.42,3.33,15.55,4.64,34.3,8.7,65.5,6.38,78.69-8,18.14-19.77-4.51-55-50.66-79.67,10.51,6,18.49,14,22.37,23,20.84,18.2,28.46,38.15,16.85,50.81-10.3,11.22-33.22,14-59.38,9a165.31,165.31,0,0,1-22.55-6.06q-5.92-2-11.86-4.54c-2.73-1.16-5.45-2.43-8.16-3.74-1.14-.56-2.29-1.1-3.43-1.68-4.86-2.48-9.42-5.1-13.68-7.82l-.83-.51c-15.23-9.83-26.46-20.89-32.58-31.46-6.78-11.74-7.26-22.86.19-31,11.46-12.48,38.54-14.51,68.32-7,1.64,0,3.29,0,5,0a89.31,89.31,0,0,1,33.48,7.74,206.86,206.86,0,0,0-24-10c-40.11-13.78-79.08-13.18-94.24,3.35-9.61,10.46-7.76,25.27,2.93,40.54C485.93,432.41,503.62,447.08,527,459Z"/><path class="cls-4" d="M616.93,379.81l.81-1.74c-3.61-.3-6.72,1.28-7.44,3.75l2.69-.08A4.62,4.62,0,0,1,616.93,379.81Z"/><path class="cls-4" d="M622.43,383l2.58.77c-.06-2.52-2.57-4.83-6-5.54l.37,1.93A4.54,4.54,0,0,1,622.43,383Z"/><path class="cls-4" d="M625,384.62l-2.6.08a4.41,4.41,0,0,1-4.07,2.24l-.82,1.75C621.2,389,624.42,387.26,625,384.62Z"/><path class="cls-4" d="M616.46,388.56l-.36-1.89c-1.93-.56-3.3-1.89-3.47-3.34l-2.48-.75C610,385.31,612.67,387.89,616.46,388.56Z"/><path class="cls-4" d="M621.7,384.72l-2.42.07-.8,1.71A3.94,3.94,0,0,0,621.7,384.72Z"/><path class="cls-4" d="M621.8,382.83a4.05,4.05,0,0,0-2.37-2.16l.29,1.54Z"/><path class="cls-4" d="M616,386.19l-.37-2-2.39-.72A4,4,0,0,0,616,386.19Z"/><path class="cls-4" d="M616.72,380.25a4.14,4.14,0,0,0-3.06,1.47l2.41-.08Z"/><path class="cls-4" d="M547.32,438.74l-.29-.13c-4.23-1.88-6.93-2.83-7.89-5.75-.67-2-.55-4-4.08-3.12s-7.09-5.18-9.25-1.37c-1.21,2.14,8.21,3.2,9.63,5.05,2.54,3.32,6.82,5.16,11.33,7.06l1.94.82C553.65,443.42,551.63,440.67,547.32,438.74Z"/><path class="cls-4" d="M597.33,412.55a7,7,0,0,0,2.43,0c4.86-.74,2.61-6.22-.77-7.73l-.56-.22c-1.62-.52-3.39-.28-4.15.69s-1.67,3-.95,4C594.43,410.92,595.53,412.17,597.33,412.55Z"/><path class="cls-4" d="M516.94,397.27a7.31,7.31,0,0,0-3.31,4.24c-.11.67-.69,1.52,0,2a16.23,16.23,0,0,0,2.81,1.63c1.69-.2,2-.47,2.68-1.35l.34-.44a6.34,6.34,0,0,0,.44-5.16C519.47,397.15,518.54,396.56,516.94,397.27Z"/><path class="cls-4" d="M565.8,411c-.95-.26-3.88.26,0,0Z"/></g><line class="cls-8" x1="177.46" y1="594.57" x2="177.46" y2="594.57"/><path class="cls-9" d="M148.29,567A294.5,294.5,0,0,1,69.91,366.52C69.91,203.29,202.23,71,365.46,71S661,203.29,661,366.52a294.7,294.7,0,0,1-90.46,212.81"/><line class="cls-8" x1="555.6" y1="592.78" x2="555.6" y2="592.78"/><g class="cls-10"><path class="cls-11" d="M157.44,206.54s-16.35,20.81,3,40.14c0,0-6.69,20.07.74,32S221,335.52,221,335.52s174.33,1.86,174.71,0-48.33-54.27-48.33-54.27L234,214Z"/><path class="cls-12" d="M168.69,206.54s-16.36,20.81,3,40.14c0,0-6.69,20.07.74,32s59.85,56.87,59.85,56.87,174.34,1.86,174.71,0-48.33-54.27-48.33-54.27L245.26,214Z"/><path class="cls-13" d="M217.67,220.42c-34.46,5.2-38.31,32.29-23.51,53.63s39.76,40,39.76,40,32.43,27.69,64.56,22.9c39.82-5.92,46.15-13,72.39,4.07,22.54,14.7,33.55-11.93,33.55-11.93l-79.37-92.87S242,216.74,217.67,220.42Z"/><path class="cls-14" d="M408.35,354.27c-29.86-31-66.06-5.16-102.19-47.48-16.36-19.17-57.81-34.07-67.1-29.94-11.95,5.31-20.57,35-21.86,48.06-1.2,12.12,4.1,33.61,3.51,35.59-4.22,14.2-6,15.19-22.63,34.85-7.8,9.2-17.87,18.71-14.18,23.53,7.26,9.48,16.58,9,22.3,10.55,3.84,6.25-3.28,17.47-4,24.76-1.12,11.12-.3,13.52,6.8,15.35-6.07-.82-11.9,8-8.21,12.9s9.84,8.47,10.81,14.52c1.6,9.85-3.37,16.74-2.84,26.71.19,3.66,2.3,6.94,4.67,9.75,16.11,19.07,37,22.42,60.72,14.64s43.42-24.26,63-39.8c29.6-23.54,61.82-47.76,74.6-83.35C423.53,392,432.65,379.51,408.35,354.27Z"/><path class="cls-15" d="M267.67,471c12.27-9.69,23.7-19.67,30.59-33.68,5.71-11,10.11-21.89,14.76-33.57,1.07,7.3.19,14.69-1.38,21.85-2.62,10.83-7.12,21.71-14.95,29.81-7.8,7.92-18,13.86-29,15.59Z"/><path class="cls-16" d="M206.3,455.1c3.31-.42,10.15,1,12.94,2.85s5.29,4.08,8.18,5.74c3.22,1.86,12,5.15,11.64,5.69-2.59,3.46-11.73,4.34-15.4,6.63-6,3.76-8.82,5.4-15.91,5a10.22,10.22,0,0,1-4.5-1.06c-2.1-.82-4.55-2.39-4.57-4.65-.05-4.71,2.24-6.35,2.4-8.79,0,0-5.67-6.76-2-9.5C201.37,455.39,203.5,455.47,206.3,455.1Z"/><path class="cls-17" d="M311.47,325.39c3.46,7.63,5.62,15.81,9.31,23.34,6.6,13.47,17.72,24.07,27.14,35.74s17.57,25.78,16.38,40.74c11.94.91,35.05-10.76,46.15-15.25,3.82-31.37-7.39-53.89-16.15-84.26s-26.63-58.77-52.87-76.37-61-33.77-90.06-21.33c-28.78,12.33-50.28,41-15.93,48.85C263,283.15,298.83,297.56,311.47,325.39Z"/><path class="cls-17" d="M296.31,345.45c-2.65-6.35-11.72-8.27-39-12.62-6-.95-35.31,1.93-35.35,3.69-.14,5.31,3.61,5.7,6.73,8,10.41-1.49,20.85-.91,33-1.53C278.54,342.09,283.14,344.14,296.31,345.45Z"/><path class="cls-13" d="M198,420.39c3.35.49,6.78-1.16,10.16-1.09s7.3,2.43,6.87,5.78A50.83,50.83,0,0,0,197.52,421Z"/><path class="cls-13" d="M215.4,425.68l-.51-.22A50.37,50.37,0,0,0,197.52,421l.51-.64a48.69,48.69,0,0,1,16.65,4.08,3.83,3.83,0,0,0-1-2.36,7.81,7.81,0,0,0-5.51-2.4,25.84,25.84,0,0,0-4.29.4,20.16,20.16,0,0,1-5.86.28s3.8-.81,5.74-1.1a28.4,28.4,0,0,1,4.43-.41,8.61,8.61,0,0,1,6.12,2.69,4.52,4.52,0,0,1,1.15,3.57Z"/><path class="cls-18" d="M138.29,577.86s-15.61,5.56-3,14.55,22.3,12.41,17.84,18.82-11.15,21,3,27.39,5.21,13.26,13.38,18,58.74,7.7,89.22.86,43.86,2.56,61-.86,82.52-29.1,126.38-37.65,124.16-7.71,133.82-14.55-8.68-23.92,3-26.53c20.07-4.49,23-20.1,18.58-25.31C597.76,548.25,138.29,577.86,138.29,577.86Z"/><path class="cls-12" d="M602.15,529.16a2,2,0,0,0-1.6-.61l-462,29.36a2.06,2.06,0,0,0-1.46.77,2.1,2.1,0,0,0-.44,1.6l2.94,20.82a2.05,2.05,0,0,0,1.84,1.77c.64.06,43.14,4,111.56,4,34.46,0,75.49-1,121.05-3.94,136-8.83,200.92-14.82,225.69-27a2,2,0,0,0,1.15-1.7l1.84-23.42A2.09,2.09,0,0,0,602.15,529.16Z"/><path class="cls-19" d="M198.14,172.28s63.93-84.75,200.73-69.88,190.32,119,202.21,142.74A162.19,162.19,0,0,1,616,289.75l-61.33,33.82L426.74,299.78Z"/><path class="cls-12" d="M153.53,547s-23.42.37-18.21,13,180.65,6,232,3,189.58-11.89,221.54-22.3-1.11-17.47-1.11-17.47Z"/><path class="cls-18" d="M400.38,331l-27-23.48,21.38-28.09,23.34,17.29-1.15,1.66c-4.16,6-15.15,22.84-16,28.84ZM379,306.93l18.73,16.27c2.93-8,11.38-20.77,14.62-25.54l-16.81-12.45Z"/><path class="cls-20" d="M153.75,209.38l25.52-36.06a13.14,13.14,0,0,1,10.42-5.54c17.41-.43,66.89,2.18,131.49,38.33,81,45.35,111.51,86.24,111.51,86.24l-31.22,56.5S321.18,276.74,269.14,247c-40.86-23.34-91.79-28.82-111.8-30.1A4.77,4.77,0,0,1,153.75,209.38Z"/><path class="cls-21" d="M164.38,206.33l18.26-26a11.6,11.6,0,0,1,9.58-4.92c16.42.13,64.08,4.07,129,40.38,81,45.35,111.51,86.24,111.51,86.24L410.33,340s-69-60.85-120.07-92.24c-53.58-32.95-109.6-37.58-124.32-38.24A2,2,0,0,1,164.38,206.33Z"/><path class="cls-21" d="M614.46,280.83l-62.82,27.88s-20.81-39.41-81.78-37.18-97.39,78.06-59.47,139.77L302.31,448.15a56.47,56.47,0,0,0-32.64,28.91c-8.89,18.44-21.26,42.33-25.81,42.78-7.44.75-92.19,4.46-102.6,0,0,0,15.62,32,23.79,35.69s82.53,8.92,193.3,0,192.55-10.41,226-23.79l5.95-40.15S637.88,338.44,614.46,280.83Z"/><path class="cls-21" d="M627.25,393.26a15.54,15.54,0,0,0-22.51-16.73c-37.46,19.77-102.67,54.85-113.68,65.34-11.51,11-33.51,47.36-44.29,65.75a6.44,6.44,0,0,0,6.17,9.67c28.73-2.76,99.68-10,131.86-17.38A28.63,28.63,0,0,0,606,479.6C611.7,459,621.71,421.38,627.25,393.26Z"/><path class="cls-21" d="M513.93,445,592.28,405a9.37,9.37,0,0,1,13.44,10.29l-10,46.89A28.59,28.59,0,0,1,573,484.29l-95.32,17.65a4.8,4.8,0,0,1-4.84-7.42l22.63-33.22A49.62,49.62,0,0,1,513.93,445Z"/><path class="cls-22" d="M224.53,161c6.53-7,14.26-12.72,22.28-17.91,4-2.58,8.18-5,12.4-7.22,39-19.75,82.19-27.53,125.47-25.95,46.1,1.42,93.76,18.92,132.82,50.37a259.33,259.33,0,0,1,21.38,19.32c27,27.38,47.5,60.69,60.8,96.36-2-4.31-3.93-8.66-6.13-12.88-1.09-2.12-2.07-4.28-3.23-6.36L587,250.48c-4.66-8.27-9.55-16.41-14.91-24.22S561,210.86,555,203.6s-12.5-14.18-19.25-20.78c-3.44-3.21-6.84-6.49-10.45-9.53L522.59,171c-.89-.77-1.82-1.49-2.72-2.24-1.84-1.48-3.63-3-5.5-4.44-38.36-30-84.41-46.81-129.94-48.9-41-2.08-84,4.19-124.22,22.5q-6.39,3.08-12.58,6.59t-12,7.63A95,95,0,0,0,224.53,161Z"/><path class="cls-23" d="M282.52,175.63A437.11,437.11,0,0,1,323,193.76c6.6,3.35,13.15,6.8,19.61,10.42s12.82,7.41,19.13,11.3,12.48,8,18.58,12.22,12.07,8.63,17.91,13.22,11.5,9.39,17.06,14.33,10.8,10.24,15.92,15.64l-2.46-.39a86.27,86.27,0,0,1,8.14-3.69q4.13-1.63,8.34-3a119.65,119.65,0,0,1,17.22-4,100,100,0,0,1,35.19.59c2.89.57,5.75,1.3,8.57,2.15,1.4.43,2.77.94,4.16,1.41s2.78.92,4.14,1.46l4.07,1.65c.68.28,1.36.53,2,.83l2,.94c1.32.64,2.66,1.22,3.95,1.9l3.85,2.11a82.51,82.51,0,0,1,14.24,10.21c4.29,3.94,8.25,8.39,10.73,13.67-2.81-5.1-7-9.22-11.41-12.89a85,85,0,0,0-14.43-9.38l-3.87-1.9c-1.3-.6-2.63-1.15-3.95-1.72l-2-.85c-.66-.28-1.34-.5-2-.76l-4-1.48c-1.35-.48-2.75-.86-4.11-1.29s-2.75-.87-4.13-1.24c-2.76-.72-5.53-1.39-8.35-1.86a100.79,100.79,0,0,0-34,.13,115.69,115.69,0,0,0-16.61,4.08c-2.71.86-5.4,1.83-8,2.89a84.24,84.24,0,0,0-7.68,3.52l-1.39.74-1.08-1.13a317.89,317.89,0,0,0-32.52-29.59q-17.26-13.67-35.84-25.68c-6.17-4-12.4-7.93-18.74-11.69s-12.7-7.46-19.17-11-12.95-7-19.53-10.37q-4.92-2.54-9.91-5C289.21,178.76,285.88,177.15,282.52,175.63Z"/><g class="cls-24"><path class="cls-25" d="M542.78,385.87s40.89-23,69.88-34.2l2.23-29s-46.09,20.07-62.45,26.76Z"/></g><path class="cls-26" d="M240.91,161a3,3,0,0,1-1.16-5.17c11.81-9.77,49.78-35,128.45-36.89,64.82-1.54,107.64,21,129.13,36.31a3,3,0,0,1-2.84,5.15c-25.39-10.18-72.71-25.25-121.64-20.51-46.58,4.5-72.78,15.8-85.5,23.24a32.2,32.2,0,0,1-24.06,3.47Z"/><path class="cls-27" d="M436,419.62s-51.38-55.91-6.3-108.17c43-49.83,113.66.28,113.66.28s-55.14-20.18-85.43,6.75S433.25,397.16,456.85,423Z"/><path class="cls-25" d="M572.53,434.56a6.31,6.31,0,1,1,6.31,6.31A6.31,6.31,0,0,1,572.53,434.56Z"/><path class="cls-28" d="M568.52,454.4a6.31,6.31,0,1,1,6.31,6.31A6.31,6.31,0,0,1,568.52,454.4Z"/><path class="cls-26" d="M519.3,175.63s26.06,23.28,38.4,39.4c15.41,20.13,27.63,43.3,33.12,54.39a7.18,7.18,0,0,1-3.35,9.67l-19.36,9.21a9.43,9.43,0,0,1-10.48-1.62c-5.85-5.43-14.43-15.71-13-28.38,2.19-19,8.21-25.06-1.65-48.9C538.83,199.27,519.3,175.63,519.3,175.63Z"/><path class="cls-29" d="M257.11,519.85l21.36-40.77a46.11,46.11,0,0,1,26.12-22.3L416.16,419.2"/><path class="cls-26" d="M183.85,183.86h0c-4.48,5.82-.71,13.94,6.89,14.88,22.73,2.79,39.79.78,90.68,19.31,39.82,14.5,83.45,42.94,83.45,42.94S337,224,276.46,200.1c-42.27-16.7-71.81-19.78-83.66-20.29A10.66,10.66,0,0,0,183.85,183.86Z"/><rect class="cls-30" x="313.29" y="460.71" width="42.68" height="62.7" rx="8.67" transform="translate(-140.48 133.77) rotate(-18.76)"/><rect class="cls-31" x="289.64" y="512.02" width="23.84" height="23.84" rx="4.65" transform="matrix(0.95, -0.32, 0.32, 0.95, -152.49, 124.83)"/><path class="cls-18" d="M413.13,498.15l6.16,18.11a7.27,7.27,0,0,1-4.54,9.2l-26.68,9.06a7.24,7.24,0,0,1-9.19-4.53l-24-70.62a7.25,7.25,0,0,1,4.53-9.2l17.78-6L393,438.78l17.78-6a7.24,7.24,0,0,1,9.19,4.53l15.5,45.64a7.24,7.24,0,0,1-4.53,9.19Z"/><path class="cls-32" d="M487.5,320.55c-27.22,3.55-47.57,31-38.78,59s27.92,34.65,48.61,31,36.2-25.34,33.1-50.16S499.4,319,487.5,320.55Z"/><path class="cls-33" d="M487.69,327.43c-23.29.12-40.37,26.33-32.91,50s23.7,29.39,41.25,26.32,30.71-21.5,28.08-42.56S504,327.35,487.69,327.43Z"/><path class="cls-22" d="M488.45,415c-25,0-45.29-22-45.29-49s20.32-49,45.29-49,45.29,22,45.29,49S513.42,415,488.45,415Zm0-92.18C466.69,322.77,449,342.14,449,366s17.71,43.18,39.47,43.18,39.47-19.37,39.47-43.18S510.21,322.77,488.45,322.77Z"/><path class="cls-34" d="M460.33,356.19s-6.89,29.68,15.13,38.6c26.54,10.74,36.23-8.92,36.23-8.92a53.27,53.27,0,0,1-27.93-6.69C469.15,371.22,460.33,356.19,460.33,356.19Z"/><circle class="cls-16" cx="292.28" cy="495.13" r="11.45"/><path class="cls-25" d="M286.44,495.13a5.85,5.85,0,1,1,5.84,5.85A5.83,5.83,0,0,1,286.44,495.13Z"/><path class="cls-35" d="M232.89,355.7a41.84,41.84,0,0,1,21.3,0c14.69,3.68,15.75,10,21.06,7.84"/><path class="cls-15" d="M232.89,355.7c8.84-3.37,19-2.46,27.65,1a36.66,36.66,0,0,1,7.43,4.12c1.49,1,2.88,2.31,4.61,2.81a5.07,5.07,0,0,0,2.67-.09,4.85,4.85,0,0,1-2.77.66c-2.84-.39-5.16-2.39-7.65-3.53a52.91,52.91,0,0,0-31.94-5Z"/><path class="cls-35" d="M237.42,374.36s3.79,5.38,13,1.17a41.37,41.37,0,0,1,18.76-3.33"/><path class="cls-15" d="M237.42,374.36c3.67,2.32,7.35,1.49,10.87,0A29.17,29.17,0,0,1,260.64,371a22.41,22.41,0,0,1,8.51,1.19c-2.81.66-5.47,1.25-8.07,1.92a90.92,90.92,0,0,0-11.46,3.77c-4.12,1.47-10.23,1-12.2-3.53Z"/><path class="cls-36" d="M217.29,491s9.85-8.35,18.27-10.1,11.79,3.59,9.48,7.94-13.85,14.64-17.9,20.25-8.78,5.94-9.85,1.72S211.81,503.16,217.29,491Z"/><path class="cls-36" d="M259.78,401.6c2.21-7.44,8.65-13.46,24.81-18.64s24.65-6.13,17,2.61-18.81,17.12-20.73,25.87-5.59,22.31-11.69,15.92C265.49,423.54,255,417.56,259.78,401.6Z"/><path class="cls-36" d="M203.23,406.65c5.14-3.83,13.05-15.69,14-21.45s-6.74.51-11.66,8.57C201.34,400.69,198.41,410.24,203.23,406.65Z"/><path class="cls-36" d="M256.7,288c-7-4.39-16-2.11-20.6,5.2-4.41,7.07-8.41,15-6.31,17.74,4.12,5.39,25.42.75,33.73,3.83s26.7,14.08,31.57,15.43c9.79,2.71,2.62-19.25-10.49-25.8C277.2,300.69,265.48,293.53,256.7,288Z"/><path class="cls-36" d="M229.8,405s-.64,12.18-1.63,16.11c-1.12,4.44-5.52,7.31-10,8.2l-7.09,1.4s9.73,1.57,12.82.69C236.34,427.92,229.8,405,229.8,405Z"/><g class="cls-37"><path class="cls-38" d="M422.23,418.05,291.3,458.35l-47.42,66.37a12.38,12.38,0,0,1-11,5.15l-89.15-6.64-.77-1.18c-1.25-1.92-30.78-48.07-37.33-141.91C102.2,331,113,289.28,122.68,263c10.49-28.56,21.66-45.27,22.13-46l.13-.18c9.08-11.39,29.67-13.31,61.19-5.7a320.14,320.14,0,0,1,43.66,14.34l.26.11.24.17L406.63,333.5Z"/></g><path class="cls-39" d="M235.25,359.94c-4.6,4-2.78,7.68-.95,10.93,1.56,2.78,3.15,9.94,16.09,4.66s17.85-5,24.86-6.82c1.69-.44-1.25-3.62-6.1-3.64s-7.76-4.27-18.09-5.49C242.74,358.6,239.6,356.14,235.25,359.94Z"/><path class="cls-40" d="M243.33,372.13c-2.29,0-4.14-2.81-4.14-6.27s1.85-6.28,4.14-6.28S245.61,372.13,243.33,372.13Z"/><path class="cls-13" d="M241.85,368c-1.47,0-2.66-1.81-2.66-4s1.19-4,2.66-4S243.33,368,241.85,368Z"/><path class="cls-15" d="M290.34,365.86c-7.3,1.36-14.93,2.06-22.24.09-2.78-.67-5.66-2.66-8-3.77-3.67-1.46-8-1.41-11.91-1.91-3.82-.16-8.1-.85-11.34,1-2,1.45-2.16,5-3.88,7a7.63,7.63,0,0,1-3.72,2.6,8.42,8.42,0,0,0,2.53-3.29c.8-2,.59-4.29,1.39-6.42.84-2.57,3.74-4.26,6.08-4.8a32.43,32.43,0,0,1,9.18-.85c4.63.28,9.36.2,13.72,2.13,2.84,1.41,4.62,3.05,7.41,4.1,6.61,2.45,13.65,2.84,20.82,4.08Z"/><path class="cls-15" d="M201,466.69s-.28,0-.19,0c-.09,0,.26.09.23-.33-.1-.16-.06-.08-.08-.11,2.26.06,4.54.93,6.74,1.12,3,.29,5.61-2.15,8.73-1.69a174.8,174.8,0,0,1,22.63,3.52l-.06.29c-6.53-.79-13.08-1.28-19.62-1.57-.83,0-2.8-.14-3.59-.06-2,.21-3.39,1.75-5.44,2.36-3.49,1.06-6.79-1.15-9.36-3.27a2,2,0,0,1-.4-.41c0-.42.33-.32.24-.33a.35.35,0,0,1,.14.06l.13.11-.1.28Z"/><path class="cls-41" d="M157.56,515.17a7.53,7.53,0,0,1-7.24-4.57c-8-18.77-36-89.44-32.85-151.34,3.72-72.11,26.77-107.06,26.77-107.06s-19.33,58.74-14.13,117.47c4,45.53,25.95,107.61,35.59,133.2a9.1,9.1,0,0,1-8.14,12.3Z"/></g><g class="cls-42"><text class="cls-43" transform="translate(194.85 618.18) rotate(30.81)">F</text><text class="cls-43" transform="translate(255.29 651.68) rotate(19.71)">I</text><text class="cls-43" transform="matrix(0.99, 0.14, -0.14, 0.99, 304.23, 669.05)">N</text><text class="cls-43" transform="translate(380.95 676.84) rotate(-4.09)">I</text><text class="cls-43" transform="translate(432.74 672.91) rotate(-15.98)">S</text><text class="cls-43" transform="matrix(0.86, -0.51, 0.51, 0.86, 506.74, 649.72)">H</text></g><text class="cls-44" transform="translate(185.85 615.18) rotate(30.81)">F</text><text class="cls-44" transform="translate(246.29 648.68) rotate(19.71)">I</text><text class="cls-44" transform="matrix(0.99, 0.14, -0.14, 0.99, 295.23, 666.05)">N</text><text class="cls-44" transform="translate(371.95 673.84) rotate(-4.09)">I</text><text class="cls-44" transform="translate(423.74 669.91) rotate(-15.98)">S</text><text class="cls-44" transform="matrix(0.86, -0.51, 0.51, 0.86, 497.74, 646.72)">H</text></g></g></svg>