<svg id="Layer_1" data-name="Layer 1" xmlns="http://www.w3.org/2000/svg" xmlns:xlink="http://www.w3.org/1999/xlink" viewBox="0 0 580.35 141"><defs><style>.cls-1{fill:none;}.cls-2{font-size:59.27px;fill:#fff;font-family:BlackOpsOne-Regular, Black Ops One;}.cls-3{clip-path:url(#clip-path);}.cls-4{fill:url(#linear-gradient);}.cls-5{fill:url(#linear-gradient-2);}</style><clipPath id="clip-path"><circle class="cls-1" cx="67.69" cy="70" r="61.26"/></clipPath><linearGradient id="linear-gradient" x1="-6.4" y1="58.91" x2="128.77" y2="58.91" gradientUnits="userSpaceOnUse"><stop offset="0" stop-color="#ee885b"/><stop offset="0.49" stop-color="#5c865e"/><stop offset="0.87" stop-color="#3b526d"/></linearGradient><linearGradient id="linear-gradient-2" x1="70.91" y1="89.62" x2="156.78" y2="89.62" gradientUnits="userSpaceOnUse"><stop offset="0" stop-color="#ee885b"/><stop offset="1"/></linearGradient></defs><text class="cls-2" transform="translate(180.29 91.21) scale(1.01 1)">COSMONAUT</text><g class="cls-3"><path class="cls-4" d="M-4.4,156.59h-2V-38.76h2ZM-.11-38.76h-2V156.59h2Zm4.3,0h-2V156.59h2Zm4.29,0h-2V156.59h2Zm4.3,0h-2V156.59h2Zm4.3,0h-2V156.59h2Zm4.29,0h-2V156.59h2Zm4.3,0h-2V156.59h2Zm4.29,0H28V156.59h2Zm4.3,0h-2V156.59h2Zm4.3,0h-2V156.59h2Zm4.29,0h-2V156.59h2Zm4.3,0h-2V156.59h2Zm4.29,0h-2V156.59h2Zm4.3,0h-2V156.59h2Zm4.3,0H58V156.59h2Zm4.29,0h-2V156.59h2Zm4.3,0h-2V156.59h2Zm4.29,0h-2V156.59h2Zm4.3,0h-2V156.59h2Zm4.3,0h-2V156.59h2Zm4.29,0h-2V156.59h2Zm4.3,0h-2V156.59h2Zm4.29,0h-2V156.59h2Zm4.3,0h-2V156.59h2Zm4.3,0h-2V156.59h2Zm4.29,0h-2V156.59h2Zm4.3,0h-2V156.59h2Zm4.29,0h-2V156.59h2Zm4.3,0h-2V156.59h2Zm4.3,0h-2V156.59h2Zm4.29,0h-2V156.59h2Z"/></g><ellipse class="cls-5" cx="113.85" cy="89.62" rx="42.94" ry="42.64"/></svg>